<svg xmlns="http://www.w3.org/2000/svg" xmlns:xlink="http://www.w3.org/1999/xlink" width="500" zoomAndPan="magnify" viewBox="0 0 375 374.999991" height="500" preserveAspectRatio="xMidYMid meet" version="1.0"><path fill="rgb(100%, 100%, 100%)" d="M 129.578125 241.667969 L 236.992188 241.667969 L 236.992188 134.199219 L 129.578125 134.199219 Z M 362.832031 216.125 C 360.261719 216.125 358.171875 214.027344 358.171875 211.457031 C 358.171875 208.882812 360.261719 206.789062 362.832031 206.789062 C 365.402344 206.789062 367.503906 208.882812 367.503906 211.457031 C 367.503906 214.027344 365.40625 216.125 362.832031 216.125 Z M 313.652344 252.238281 C 316.234375 252.238281 318.328125 254.328125 318.328125 256.898438 C 318.328125 259.472656 316.234375 261.574219 313.652344 261.574219 C 311.082031 261.574219 309 259.476562 309 256.898438 C 309 254.328125 311.085938 252.238281 313.652344 252.238281 Z M 247.539062 62.164062 C 247.539062 59.589844 249.636719 57.5 252.214844 57.5 C 254.785156 57.5 256.878906 59.589844 256.878906 62.164062 C 256.878906 64.742188 254.785156 66.839844 252.214844 66.839844 C 249.636719 66.839844 247.539062 64.742188 247.539062 62.164062 Z M 245.980469 246.164062 C 245.980469 248.644531 243.964844 250.660156 241.484375 250.660156 L 125.082031 250.660156 C 123.636719 250.660156 122.351562 249.96875 121.527344 248.90625 C 120.945312 248.148438 120.589844 247.199219 120.589844 246.164062 L 120.589844 129.707031 C 120.589844 127.222656 122.601562 125.210938 125.082031 125.210938 L 241.484375 125.210938 C 243.964844 125.210938 245.976562 127.222656 245.976562 129.707031 L 245.976562 246.164062 Z M 215.832031 316.90625 C 215.832031 319.476562 213.742188 321.570312 211.179688 321.570312 C 208.609375 321.570312 206.511719 319.476562 206.511719 316.90625 C 206.511719 314.332031 208.609375 312.238281 211.179688 312.238281 C 213.742188 312.238281 215.832031 314.332031 215.832031 316.90625 Z M 150.71875 58.097656 C 150.71875 55.523438 152.8125 53.429688 155.386719 53.429688 C 157.957031 53.429688 160.046875 55.523438 160.046875 58.097656 C 160.046875 60.671875 157.957031 62.761719 155.386719 62.761719 C 152.8125 62.761719 150.71875 60.671875 150.71875 58.097656 Z M 252.214844 359.5625 C 254.785156 359.5625 256.878906 361.65625 256.878906 364.234375 C 256.878906 366.808594 254.785156 368.902344 252.214844 368.902344 C 249.640625 368.902344 247.546875 366.808594 247.546875 364.234375 C 247.546875 361.65625 249.640625 359.5625 252.214844 359.5625 Z M 181.042969 334.769531 C 181.042969 337.339844 178.945312 339.4375 176.371094 339.4375 C 173.800781 339.4375 171.71875 337.339844 171.71875 334.769531 C 171.71875 332.195312 173.800781 330.105469 176.371094 330.105469 C 178.945312 330.105469 181.042969 332.195312 181.042969 334.769531 Z M 159.773438 357.371094 C 162.34375 357.371094 164.4375 359.464844 164.4375 362.039062 C 164.4375 364.609375 162.34375 366.707031 159.773438 366.707031 C 157.203125 366.707031 155.113281 364.609375 155.113281 362.039062 C 155.113281 359.464844 157.203125 357.371094 159.773438 357.371094 Z M 119.011719 312.839844 C 119.011719 315.40625 116.921875 317.503906 114.34375 317.503906 C 111.773438 317.503906 109.683594 315.40625 109.683594 312.839844 C 109.683594 310.265625 111.773438 308.171875 114.34375 308.171875 C 116.921875 308.171875 119.011719 310.265625 119.011719 312.839844 Z M 10.71875 261.574219 C 8.144531 261.574219 6.042969 259.484375 6.042969 256.914062 C 6.042969 254.339844 8.144531 252.25 10.71875 252.25 C 13.296875 252.25 15.386719 254.339844 15.386719 256.914062 C 15.386719 259.484375 13.292969 261.574219 10.71875 261.574219 Z M 58.015625 220.523438 C 55.441406 220.523438 53.34375 218.425781 53.34375 215.847656 C 53.34375 213.277344 55.441406 211.1875 58.015625 211.1875 C 60.585938 211.1875 62.675781 213.28125 62.675781 215.847656 C 62.675781 218.425781 60.585938 220.523438 58.015625 220.523438 Z M 40.164062 185.691406 C 37.589844 185.691406 35.492188 183.601562 35.492188 181.03125 C 35.492188 178.457031 37.585938 176.363281 40.164062 176.363281 C 42.734375 176.363281 44.820312 178.457031 44.820312 181.03125 C 44.820312 183.601562 42.734375 185.691406 40.164062 185.691406 Z M 12.910156 169.082031 C 10.339844 169.082031 8.246094 166.996094 8.246094 164.425781 C 8.246094 161.847656 10.339844 159.753906 12.910156 159.753906 C 15.480469 159.753906 17.574219 161.847656 17.574219 164.425781 C 17.574219 166.996094 15.480469 169.082031 12.910156 169.082031 Z M 62.082031 123.636719 C 59.511719 123.636719 57.421875 121.542969 57.421875 118.972656 C 57.421875 116.398438 59.511719 114.304688 62.082031 114.304688 C 64.652344 114.304688 66.753906 116.398438 66.753906 118.972656 C 66.753906 121.542969 64.652344 123.636719 62.082031 123.636719 Z M 114.339844 15.433594 C 111.773438 15.433594 109.683594 13.34375 109.683594 10.777344 C 109.683594 8.199219 111.773438 6.097656 114.339844 6.097656 C 116.914062 6.097656 119.011719 8.195312 119.011719 10.777344 C 119.011719 13.34375 116.914062 15.433594 114.339844 15.433594 Z M 185.527344 40.230469 C 185.527344 37.660156 187.617188 35.566406 190.183594 35.566406 C 192.753906 35.566406 194.847656 37.660156 194.847656 40.230469 C 194.847656 42.804688 192.753906 44.894531 190.183594 44.894531 C 187.617188 44.894531 185.527344 42.804688 185.527344 40.230469 Z M 206.789062 17.628906 C 204.222656 17.628906 202.128906 15.535156 202.128906 12.964844 C 202.128906 10.390625 204.222656 8.292969 206.789062 8.292969 C 209.367188 8.292969 211.460938 10.390625 211.460938 12.964844 C 211.460938 15.539062 209.367188 17.628906 206.789062 17.628906 Z M 365.039062 114.304688 C 367.605469 114.304688 369.695312 116.398438 369.695312 118.972656 C 369.695312 121.539062 367.601562 123.632812 365.039062 123.632812 C 362.460938 123.632812 360.363281 121.539062 360.363281 118.972656 C 360.367188 116.398438 362.460938 114.304688 365.039062 114.304688 Z M 317.730469 155.359375 C 320.300781 155.359375 322.394531 157.453125 322.394531 160.023438 C 322.394531 162.597656 320.300781 164.691406 317.730469 164.691406 C 315.160156 164.691406 313.0625 162.597656 313.0625 160.023438 C 313.066406 157.453125 315.160156 155.359375 317.730469 155.359375 Z M 335.585938 190.175781 C 338.15625 190.175781 340.25 192.269531 340.25 194.832031 C 340.25 197.410156 338.15625 199.511719 335.585938 199.511719 C 333.015625 199.511719 330.921875 197.414062 330.921875 194.832031 C 330.921875 192.269531 333.015625 190.175781 335.585938 190.175781 Z M 362.832031 200.742188 C 357.84375 200.742188 353.65625 204.179688 352.46875 208.804688 L 318.609375 208.804688 C 317.597656 208.804688 316.648438 209.3125 316.085938 210.164062 L 300.765625 233.359375 L 275.949219 233.359375 L 275.949219 174.257812 L 289.15625 174.257812 L 299.425781 197.011719 C 299.910156 198.089844 300.988281 198.789062 302.179688 198.789062 L 325.644531 198.789062 C 327.21875 202.746094 331.078125 205.554688 335.585938 205.554688 C 341.488281 205.554688 346.289062 200.742188 346.289062 194.835938 C 346.289062 188.933594 341.488281 184.132812 335.585938 184.132812 C 330.398438 184.132812 326.066406 187.839844 325.089844 192.742188 L 304.128906 192.742188 L 293.855469 169.992188 C 293.367188 168.90625 292.289062 168.210938 291.105469 168.210938 L 275.949219 168.210938 L 275.949219 163.050781 L 307.464844 163.050781 C 308.773438 167.488281 312.875 170.734375 317.730469 170.734375 C 323.632812 170.734375 328.433594 165.933594 328.433594 160.023438 C 328.433594 154.121094 323.632812 149.316406 317.730469 149.316406 C 312.875 149.316406 308.769531 152.566406 307.464844 157.003906 L 275.949219 157.003906 L 275.949219 131.828125 L 287.839844 131.828125 L 294.984375 142.539062 C 295.546875 143.378906 296.484375 143.882812 297.496094 143.882812 L 338.589844 143.882812 C 339.433594 143.882812 340.246094 143.53125 340.820312 142.902344 L 356.648438 125.609375 C 358.613281 128.082031 361.640625 129.671875 365.039062 129.671875 C 370.945312 129.671875 375.742188 124.871094 375.742188 118.96875 C 375.742188 113.0625 370.945312 108.257812 365.039062 108.257812 C 359.128906 108.257812 354.328125 113.0625 354.328125 118.96875 C 354.328125 119.042969 354.335938 119.117188 354.339844 119.191406 L 337.261719 137.84375 L 299.121094 137.84375 L 291.980469 127.132812 C 291.414062 126.289062 290.476562 125.785156 289.464844 125.785156 L 275.949219 125.785156 L 275.949219 114.058594 C 275.949219 103.914062 267.695312 95.664062 257.546875 95.664062 L 254.410156 95.664062 L 254.410156 72.652344 C 259.265625 71.636719 262.921875 67.320312 262.921875 62.164062 C 262.921875 56.261719 258.117188 51.453125 252.214844 51.453125 C 246.308594 51.453125 241.503906 56.261719 241.503906 62.164062 C 241.503906 66.714844 244.359375 70.605469 248.371094 72.15625 L 248.371094 95.664062 L 234.722656 95.664062 L 234.722656 73.433594 C 234.722656 72.421875 234.214844 71.476562 233.367188 70.914062 L 210.1875 55.582031 L 210.1875 23.113281 C 214.429688 21.6875 217.503906 17.683594 217.503906 12.964844 C 217.503906 7.054688 212.699219 2.253906 206.789062 2.253906 C 200.890625 2.253906 196.089844 7.058594 196.089844 12.964844 C 196.089844 17.953125 199.523438 22.148438 204.140625 23.332031 L 204.140625 57.207031 C 204.140625 58.222656 204.652344 59.164062 205.496094 59.730469 L 228.675781 75.058594 L 228.675781 95.667969 L 169.605469 95.667969 L 169.605469 86.691406 L 192.351562 76.410156 C 193.433594 75.921875 194.136719 74.847656 194.136719 73.652344 L 194.136719 50.175781 C 198.085938 48.601562 200.890625 44.742188 200.890625 40.230469 C 200.890625 34.324219 196.085938 29.523438 190.1875 29.523438 C 184.28125 29.523438 179.488281 34.324219 179.488281 40.230469 C 179.488281 45.421875 183.191406 49.757812 188.089844 50.734375 L 188.089844 71.703125 L 165.34375 81.980469 C 164.257812 82.46875 163.566406 83.546875 163.566406 84.738281 L 163.566406 95.667969 L 158.40625 95.667969 L 158.40625 68.367188 C 162.839844 67.058594 166.09375 62.953125 166.09375 58.097656 C 166.09375 52.191406 161.285156 47.386719 155.386719 47.386719 C 149.480469 47.386719 144.679688 52.191406 144.679688 58.097656 C 144.679688 62.957031 147.929688 67.058594 152.367188 68.367188 L 152.367188 95.667969 L 127.203125 95.667969 L 127.203125 87.996094 L 137.90625 80.859375 C 138.746094 80.300781 139.253906 79.355469 139.253906 78.34375 L 139.253906 37.230469 C 139.253906 36.386719 138.898438 35.578125 138.269531 35.003906 L 120.988281 19.15625 C 123.460938 17.191406 125.054688 14.167969 125.054688 10.777344 C 125.054688 4.863281 120.25 0.0546875 114.339844 0.0546875 C 108.445312 0.0546875 103.644531 4.863281 103.644531 10.777344 C 103.644531 16.679688 108.445312 21.476562 114.339844 21.476562 C 114.421875 21.476562 114.496094 21.46875 114.570312 21.464844 L 133.210938 38.5625 L 133.210938 76.726562 L 122.507812 83.863281 C 121.667969 84.421875 121.164062 85.367188 121.164062 86.378906 L 121.164062 95.664062 L 109.015625 95.664062 C 98.875 95.664062 90.625 103.914062 90.625 114.058594 L 90.625 116.773438 L 72.566406 116.773438 C 71.550781 111.917969 67.234375 108.257812 62.082031 108.257812 C 56.183594 108.257812 51.382812 113.0625 51.382812 118.96875 C 51.378906 124.875 56.183594 129.679688 62.082031 129.679688 C 66.628906 129.679688 70.515625 126.824219 72.070312 122.816406 L 90.625 122.816406 L 90.625 136.46875 L 73.359375 136.46875 C 72.34375 136.46875 71.402344 136.976562 70.839844 137.820312 L 55.515625 161.015625 L 23.054688 161.015625 C 21.625 156.773438 17.621094 153.703125 12.910156 153.703125 C 7.003906 153.703125 2.203125 158.511719 2.203125 164.425781 C 2.203125 170.328125 7.007812 175.128906 12.910156 175.128906 C 17.902344 175.128906 22.09375 171.691406 23.273438 167.058594 L 57.140625 167.058594 C 58.152344 167.058594 59.097656 166.554688 59.660156 165.707031 L 74.984375 142.511719 L 90.621094 142.511719 L 90.621094 201.609375 L 86.589844 201.609375 L 76.324219 178.851562 C 75.839844 177.765625 74.757812 177.070312 73.570312 177.070312 L 50.097656 177.070312 C 48.519531 173.121094 44.664062 170.320312 40.167969 170.320312 C 34.257812 170.320312 29.453125 175.125 29.453125 181.03125 C 29.453125 186.933594 34.257812 191.730469 40.167969 191.730469 C 45.351562 191.730469 49.683594 188.023438 50.65625 183.117188 L 71.621094 183.117188 L 81.886719 205.878906 C 82.375 206.960938 83.453125 207.65625 84.636719 207.65625 L 90.621094 207.65625 L 90.621094 212.824219 L 68.273438 212.824219 C 66.96875 208.390625 62.871094 205.144531 58.015625 205.144531 C 52.113281 205.144531 47.304688 209.945312 47.304688 215.847656 C 47.304688 221.753906 52.113281 226.566406 58.015625 226.566406 C 62.871094 226.566406 66.96875 223.3125 68.277344 218.871094 L 90.621094 218.871094 L 90.621094 244.039062 L 87.898438 244.039062 L 80.761719 233.332031 C 80.199219 232.492188 79.265625 231.988281 78.25 231.988281 L 37.160156 231.988281 C 36.3125 231.988281 35.503906 232.34375 34.933594 232.96875 L 19.097656 250.261719 C 17.136719 247.792969 14.113281 246.195312 10.71875 246.195312 C 4.8125 246.195312 0 251.003906 0 256.90625 C 0 262.8125 4.8125 267.613281 10.71875 267.613281 C 16.625 267.613281 21.425781 262.8125 21.425781 256.90625 C 21.425781 256.832031 21.417969 256.753906 21.414062 256.679688 L 38.488281 238.03125 L 76.632812 238.03125 L 83.765625 248.734375 C 84.328125 249.574219 85.269531 250.078125 86.277344 250.078125 L 90.617188 250.078125 L 90.617188 261.816406 C 90.617188 271.960938 98.871094 280.214844 109.015625 280.214844 L 112.148438 280.214844 L 112.148438 302.351562 C 107.300781 303.367188 103.644531 307.679688 103.644531 312.835938 C 103.644531 318.742188 108.445312 323.546875 114.34375 323.546875 C 120.25 323.546875 125.050781 318.738281 125.050781 312.835938 C 125.050781 308.285156 122.199219 304.402344 118.191406 302.851562 L 118.191406 280.214844 L 131.84375 280.214844 L 131.84375 301.558594 C 131.84375 302.570312 132.347656 303.515625 133.191406 304.082031 L 156.375 319.410156 L 156.375 351.886719 C 152.132812 353.316406 149.066406 357.316406 149.066406 362.035156 C 149.066406 367.945312 153.871094 372.746094 159.773438 372.746094 C 165.675781 372.746094 170.476562 367.945312 170.476562 362.035156 C 170.476562 357.046875 167.039062 352.851562 162.414062 351.667969 L 162.414062 317.785156 C 162.414062 316.765625 161.910156 315.824219 161.0625 315.261719 L 137.882812 299.929688 L 137.882812 280.210938 L 196.953125 280.210938 L 196.953125 288.308594 L 174.199219 298.585938 C 173.121094 299.074219 172.421875 300.152344 172.421875 301.34375 L 172.421875 324.820312 C 168.472656 326.398438 165.671875 330.257812 165.671875 334.765625 C 165.671875 340.675781 170.472656 345.476562 176.371094 345.476562 C 182.277344 345.476562 187.085938 340.671875 187.085938 334.765625 C 187.085938 329.574219 183.371094 325.238281 178.464844 324.261719 L 178.464844 303.296875 L 201.21875 293.015625 C 202.300781 292.527344 202.996094 291.449219 202.996094 290.261719 L 202.996094 280.210938 L 208.15625 280.210938 L 208.15625 306.632812 C 203.71875 307.941406 200.472656 312.042969 200.472656 316.902344 C 200.472656 322.808594 205.273438 327.609375 211.175781 327.609375 C 217.074219 327.609375 221.871094 322.800781 221.871094 316.902344 C 221.871094 312.046875 218.625 307.941406 214.195312 306.632812 L 214.195312 280.210938 L 239.359375 280.210938 L 239.359375 286.996094 L 228.65625 294.148438 C 227.8125 294.710938 227.3125 295.648438 227.3125 296.660156 L 227.3125 337.773438 C 227.3125 338.621094 227.664062 339.433594 228.289062 340.003906 L 245.5625 355.84375 C 243.097656 357.8125 241.507812 360.839844 241.507812 364.234375 C 241.507812 370.144531 246.308594 374.945312 252.207031 374.945312 C 258.117188 374.945312 262.917969 370.140625 262.917969 364.234375 C 262.917969 358.324219 258.117188 353.515625 252.210938 353.515625 C 252.128906 353.515625 252.054688 353.527344 251.972656 353.527344 L 233.347656 336.445312 L 233.347656 298.28125 L 244.054688 291.140625 C 244.894531 290.578125 245.398438 289.636719 245.398438 288.621094 L 245.398438 280.21875 L 257.542969 280.21875 C 267.6875 280.21875 275.945312 271.960938 275.945312 261.816406 L 275.945312 259.101562 L 303.183594 259.101562 C 304.199219 263.957031 308.507812 267.617188 313.652344 267.617188 C 319.554688 267.617188 324.363281 262.804688 324.363281 256.898438 C 324.363281 250.996094 319.558594 246.195312 313.652344 246.195312 C 309.105469 246.195312 305.226562 249.050781 303.675781 253.054688 L 275.949219 253.054688 L 275.949219 239.40625 L 302.390625 239.40625 C 303.40625 239.40625 304.351562 238.902344 304.914062 238.046875 L 320.230469 214.847656 L 352.683594 214.847656 C 354.105469 219.097656 358.113281 222.167969 362.832031 222.167969 C 368.738281 222.167969 373.546875 217.363281 373.546875 211.457031 C 373.546875 205.550781 368.742188 200.742188 362.832031 200.742188 " fill-opacity="1" fill-rule="nonzero"/></svg>