<svg xmlns="http://www.w3.org/2000/svg" xmlns:xlink="http://www.w3.org/1999/xlink" width="500" zoomAndPan="magnify" viewBox="0 0 375 374.999991" height="500" preserveAspectRatio="xMidYMid meet" version="1.0"><defs><clipPath id="id1"><path d="M 5 7 L 372.515625 7 L 372.515625 374 L 5 374 Z M 5 7 " clip-rule="nonzero"/></clipPath></defs><path fill="rgb(0%, 0%, 0%)" d="M 128.238281 267.390625 C 95.515625 267.390625 68.988281 293.917969 68.988281 326.640625 C 68.988281 359.363281 95.515625 385.890625 128.238281 385.890625 C 160.960938 385.890625 187.488281 359.363281 187.488281 326.640625 C 187.488281 293.917969 160.960938 267.390625 128.238281 267.390625 " fill-opacity="1" fill-rule="nonzero"/><path fill="rgb(0%, 0%, 0%)" d="M 196.726562 148.878906 C 164.003906 148.878906 137.476562 175.40625 137.476562 208.128906 C 137.476562 240.851562 164.003906 267.378906 196.726562 267.378906 C 229.453125 267.378906 255.976562 240.851562 255.976562 208.128906 C 255.976562 175.40625 229.453125 148.878906 196.726562 148.878906 " fill-opacity="1" fill-rule="nonzero"/><path fill="rgb(0%, 0%, 0%)" d="M 92.332031 218.988281 C 59.609375 218.988281 33.082031 245.515625 33.082031 278.238281 C 33.082031 310.960938 59.609375 337.488281 92.332031 337.488281 C 125.054688 337.488281 151.582031 310.960938 151.582031 278.238281 C 151.582031 245.515625 125.054688 218.988281 92.332031 218.988281 " fill-opacity="1" fill-rule="nonzero"/><path fill="rgb(10.5896%, 10.5896%, 10.5896%)" d="M 221.523438 267.390625 C 188.800781 267.390625 162.273438 293.917969 162.273438 326.640625 C 162.273438 359.363281 188.800781 385.890625 221.523438 385.890625 C 254.246094 385.890625 280.773438 359.363281 280.773438 326.640625 C 280.773438 293.917969 254.246094 267.390625 221.523438 267.390625 " fill-opacity="1" fill-rule="nonzero"/><path fill="rgb(0%, 0%, 0%)" d="M 85.757812 197.230469 C 53.035156 197.230469 26.507812 223.757812 26.507812 256.480469 C 26.507812 289.203125 53.035156 315.730469 85.757812 315.730469 C 118.480469 315.730469 145.007812 289.203125 145.007812 256.480469 C 145.007812 223.757812 118.480469 197.230469 85.757812 197.230469 " fill-opacity="1" fill-rule="nonzero"/><path fill="rgb(0%, 0%, 0%)" d="M 78.214844 208.136719 C 45.492188 208.136719 18.964844 234.664062 18.964844 267.386719 C 18.964844 300.109375 45.492188 326.636719 78.214844 326.636719 C 110.9375 326.636719 137.464844 300.109375 137.464844 267.386719 C 137.464844 234.664062 110.9375 208.136719 78.214844 208.136719 " fill-opacity="1" fill-rule="nonzero"/><path fill="rgb(0%, 0%, 0%)" d="M 103.011719 242.070312 C 70.289062 242.070312 43.761719 268.597656 43.761719 301.320312 C 43.761719 334.042969 70.289062 360.570312 103.011719 360.570312 C 135.734375 360.570312 162.261719 334.042969 162.261719 301.320312 C 162.261719 268.597656 135.734375 242.070312 103.011719 242.070312 " fill-opacity="1" fill-rule="nonzero"/><path fill="rgb(0%, 0%, 0%)" d="M 162.265625 218.988281 C 129.542969 218.988281 103.015625 245.515625 103.015625 278.238281 C 103.015625 310.960938 129.542969 337.488281 162.265625 337.488281 C 194.988281 337.488281 221.515625 310.960938 221.515625 278.238281 C 221.515625 245.515625 194.988281 218.988281 162.265625 218.988281 " fill-opacity="1" fill-rule="nonzero"/><path fill="rgb(0%, 0%, 0%)" d="M 210.84375 159.71875 C 178.121094 159.71875 151.59375 186.246094 151.59375 218.96875 C 151.59375 251.691406 178.121094 278.21875 210.84375 278.21875 C 243.566406 278.21875 270.09375 251.691406 270.09375 218.96875 C 270.09375 186.246094 243.566406 159.71875 210.84375 159.71875 " fill-opacity="1" fill-rule="nonzero"/><path fill="rgb(0%, 0%, 0%)" d="M 179.679688 78.71875 C 146.957031 78.71875 120.429688 105.246094 120.429688 137.96875 C 120.429688 170.691406 146.957031 197.21875 179.679688 197.21875 C 212.402344 197.21875 238.929688 170.691406 238.929688 137.96875 C 238.929688 105.246094 212.402344 78.71875 179.679688 78.71875 " fill-opacity="1" fill-rule="nonzero"/><path fill="rgb(0%, 0%, 0%)" d="M 162.265625 68.089844 C 129.542969 68.089844 103.015625 94.613281 103.015625 127.339844 C 103.015625 160.0625 129.542969 186.589844 162.265625 186.589844 C 194.988281 186.589844 221.515625 160.0625 221.515625 127.339844 C 221.515625 94.613281 194.988281 68.089844 162.265625 68.089844 " fill-opacity="1" fill-rule="nonzero"/><path fill="rgb(0%, 0%, 0%)" d="M 260.144531 159.730469 C 227.421875 159.730469 200.894531 186.257812 200.894531 218.980469 C 200.894531 251.703125 227.421875 278.230469 260.144531 278.230469 C 292.867188 278.230469 319.394531 251.703125 319.394531 218.980469 C 319.394531 186.257812 292.867188 159.730469 260.144531 159.730469 " fill-opacity="1" fill-rule="nonzero"/><path fill="rgb(0%, 0%, 0%)" d="M 179.679688 53.125 C 146.957031 53.125 120.429688 79.652344 120.429688 112.375 C 120.429688 145.097656 146.957031 171.625 179.679688 171.625 C 212.402344 171.625 238.929688 145.097656 238.929688 112.375 C 238.929688 79.652344 212.402344 53.125 179.679688 53.125 " fill-opacity="1" fill-rule="nonzero"/><path fill="rgb(0%, 0%, 0%)" d="M 277.03125 186.601562 C 246.378906 186.601562 221.53125 211.449219 221.53125 242.101562 C 221.53125 272.753906 246.378906 297.601562 277.03125 297.601562 C 307.683594 297.601562 332.53125 272.753906 332.53125 242.101562 C 332.53125 211.449219 307.683594 186.601562 277.03125 186.601562 " fill-opacity="1" fill-rule="nonzero"/><path fill="rgb(0%, 0%, 0%)" d="M 232.308594 254.6875 C 199.585938 254.6875 173.058594 281.214844 173.058594 313.9375 C 173.058594 346.660156 199.585938 373.1875 232.308594 373.1875 C 265.035156 373.1875 291.558594 346.660156 291.558594 313.9375 C 291.558594 281.214844 265.035156 254.6875 232.308594 254.6875 " fill-opacity="1" fill-rule="nonzero"/><path fill="rgb(0%, 0%, 0%)" d="M 151.589844 267.390625 C 118.867188 267.390625 92.339844 293.917969 92.339844 326.640625 C 92.339844 359.363281 118.867188 385.890625 151.589844 385.890625 C 184.3125 385.890625 210.839844 359.363281 210.839844 326.640625 C 210.839844 293.917969 184.3125 267.390625 151.589844 267.390625 " fill-opacity="1" fill-rule="nonzero"/><path fill="rgb(0%, 0%, 0%)" d="M 120.425781 256.488281 C 87.703125 256.488281 61.175781 283.015625 61.175781 315.738281 C 61.175781 348.460938 87.703125 374.988281 120.425781 374.988281 C 153.148438 374.988281 179.675781 348.460938 179.675781 315.738281 C 179.675781 283.015625 153.148438 256.488281 120.425781 256.488281 " fill-opacity="1" fill-rule="nonzero"/><path fill="rgb(0%, 0%, 0%)" d="M 168.429688 16.378906 C 141.921875 16.378906 120.429688 37.871094 120.429688 64.378906 C 120.429688 90.890625 141.921875 112.378906 168.429688 112.378906 C 194.941406 112.378906 216.429688 90.890625 216.429688 64.378906 C 216.429688 37.871094 194.941406 16.378906 168.429688 16.378906 " fill-opacity="1" fill-rule="nonzero"/><path fill="rgb(0%, 0%, 0%)" d="M 197.34375 46.34375 C 172.078125 46.34375 151.59375 66.824219 151.59375 92.09375 C 151.59375 117.359375 172.078125 137.84375 197.34375 137.84375 C 222.613281 137.84375 243.09375 117.359375 243.09375 92.09375 C 243.09375 66.824219 222.613281 46.34375 197.34375 46.34375 " fill-opacity="1" fill-rule="nonzero"/><path fill="rgb(0%, 0%, 0%)" d="M 299.910156 137.972656 C 289.347656 137.972656 280.785156 146.535156 280.785156 157.097656 C 280.785156 167.660156 289.347656 176.222656 299.910156 176.222656 C 310.472656 176.222656 319.035156 167.660156 319.035156 157.097656 C 319.035156 146.535156 310.472656 137.972656 299.910156 137.972656 " fill-opacity="1" fill-rule="nonzero"/><path fill="rgb(0%, 0%, 0%)" d="M 299.910156 129.570312 C 289.347656 129.570312 280.785156 138.132812 280.785156 148.695312 C 280.785156 159.257812 289.347656 167.820312 299.910156 167.820312 C 310.472656 167.820312 319.035156 159.257812 319.035156 148.695312 C 319.035156 138.132812 310.472656 129.570312 299.910156 129.570312 " fill-opacity="1" fill-rule="nonzero"/><path fill="rgb(0%, 0%, 0%)" d="M 332.285156 180.367188 C 321.722656 180.367188 313.160156 188.929688 313.160156 199.492188 C 313.160156 210.054688 321.722656 218.617188 332.285156 218.617188 C 342.847656 218.617188 351.410156 210.054688 351.410156 199.492188 C 351.410156 188.929688 342.847656 180.367188 332.285156 180.367188 " fill-opacity="1" fill-rule="nonzero"/><path fill="rgb(0%, 0%, 0%)" d="M 351.597656 167.289062 C 341.035156 167.289062 332.472656 175.851562 332.472656 186.414062 C 332.472656 196.976562 341.035156 205.539062 351.597656 205.539062 C 362.160156 205.539062 370.722656 196.976562 370.722656 186.414062 C 370.722656 175.851562 362.160156 167.289062 351.597656 167.289062 " fill-opacity="1" fill-rule="nonzero"/><g clip-path="url(#id1)"><path fill="rgb(100%, 100%, 100%)" d="M 372.523438 183.371094 C 372.523438 177.625 370.296875 172.238281 366.253906 168.195312 C 358.292969 159.890625 343.863281 159.890625 335.902344 168.195312 L 311.742188 192.355469 L 323.234375 149.46875 C 324.714844 143.945312 323.945312 138.164062 321.074219 133.191406 C 318.203125 128.214844 313.582031 124.660156 308.058594 123.179688 C 296.628906 120.117188 284.835938 126.925781 281.773438 138.355469 L 275.894531 160.289062 C 273.941406 158.949219 271.730469 157.910156 269.316406 157.261719 C 263.792969 155.78125 258.011719 156.550781 253.039062 159.421875 C 250.738281 160.75 248.742188 162.453125 247.113281 164.445312 C 246.839844 164.214844 246.554688 163.992188 246.269531 163.777344 C 246.363281 161.683594 246.410156 159.433594 246.410156 157.0625 L 246.410156 71.597656 C 246.6875 57.078125 231.355469 46.308594 217.808594 51.355469 L 217.808594 42.996094 C 218.121094 28.152344 202.066406 17.335938 188.449219 23.035156 C 182.539062 2.085938 152.941406 2.101562 147.039062 23.035156 C 133.421875 17.335938 117.371094 28.152344 117.683594 42.996094 L 117.683594 92.890625 C 112.5625 91.644531 107.066406 92.300781 102.195312 95.113281 C 92.160156 100.90625 88.652344 113.683594 94.207031 124.199219 L 132.003906 195.734375 L 132.003906 220.273438 L 126.90625 219.1875 L 114.847656 198.300781 C 111.992188 193.347656 107.363281 189.804688 101.8125 188.316406 C 96.265625 186.828125 90.480469 187.585938 85.53125 190.441406 C 82.222656 192.355469 79.613281 195.019531 77.796875 198.097656 C 71.515625 194.855469 63.757812 194.769531 57.191406 198.5625 C 50.625 202.351562 46.820312 209.113281 46.488281 216.175781 C 42.832031 216.203125 39.234375 217.175781 35.992188 219.046875 C 31.039062 221.90625 27.496094 226.535156 26.007812 232.082031 C 25.320312 234.648438 25.113281 237.265625 25.371094 239.824219 C 22.304688 240.09375 19.308594 241.03125 16.570312 242.613281 C 6.324219 248.53125 2.796875 261.683594 8.714844 271.933594 L 46.074219 336.644531 C 56.835938 355.285156 63.445312 359.050781 70.972656 362.035156 C 74.558594 363.457031 77.148438 364.484375 81.902344 370.988281 C 84.25 374.199219 88.75 374.859375 91.910156 372.539062 C 95.105469 370.207031 95.800781 365.726562 93.464844 362.53125 C 86.269531 352.691406 80.714844 350.488281 76.253906 348.71875 C 71.804688 346.953125 67.605469 345.289062 58.480469 329.484375 L 40.933594 299.089844 C 43.292969 298.648438 45.585938 297.808594 47.722656 296.574219 C 51.703125 294.273438 54.671875 290.886719 56.464844 286.996094 C 56.960938 287.171875 57.464844 287.324219 57.980469 287.464844 C 63.527344 288.949219 69.308594 288.195312 74.261719 285.335938 C 77.570312 283.425781 80.179688 280.757812 81.996094 277.679688 C 86.820312 280.171875 92.515625 280.796875 97.871094 279.238281 C 96 284.566406 95.003906 290.234375 95.003906 296.027344 C 95.351562 305.515625 108.976562 305.515625 109.324219 296.027344 C 109.324219 283.019531 116.324219 270.898438 127.585938 264.394531 C 132.816406 261.441406 132.125 253.472656 126.46875 251.464844 L 106.265625 244.066406 C 102.621094 242.730469 99.507812 239.234375 100.605469 235.128906 C 101.601562 231.410156 105.558594 229.21875 109.613281 230.144531 C 109.644531 230.152344 109.679688 230.160156 109.710938 230.167969 L 139.390625 236.492188 C 141.257812 236.890625 147.371094 238.746094 147.640625 245.90625 C 147.789062 249.859375 151.109375 252.917969 155.0625 252.792969 C 159.015625 252.644531 162.101562 249.320312 161.953125 245.367188 C 161.574219 235.28125 155.574219 227.113281 146.328125 223.636719 L 146.328125 193.957031 C 146.328125 192.792969 146.042969 191.644531 145.5 190.613281 L 106.871094 117.507812 C 104.929688 113.832031 106.019531 109.441406 109.355469 107.515625 C 113.101562 105.355469 117.300781 107.457031 119.355469 110.527344 L 133.738281 132.066406 C 135.066406 134.054688 137.300781 135.25 139.691406 135.25 C 152.699219 135.25 164.820312 142.25 171.324219 153.515625 C 173.300781 156.9375 177.679688 158.113281 181.105469 156.132812 C 184.53125 154.15625 185.707031 149.777344 183.726562 146.351562 C 175.332031 131.808594 160.214844 122.375 143.625 121.082031 L 132.003906 103.679688 L 132.003906 42.996094 C 132.371094 33.5 145.988281 33.558594 146.28125 43.050781 L 146.28125 95.074219 C 146.636719 104.566406 160.257812 104.558594 160.605469 95.074219 L 160.605469 28.695312 C 160.964844 19.234375 174.527344 19.238281 174.882812 28.695312 L 174.886719 95.074219 C 175.238281 104.566406 188.859375 104.558594 189.207031 95.074219 L 189.207031 42.996094 C 189.207031 42.976562 189.207031 42.957031 189.207031 42.941406 C 189.632812 33.519531 203.136719 33.570312 203.488281 42.992188 L 203.484375 95.074219 C 203.839844 104.566406 217.460938 104.558594 217.808594 95.074219 L 217.808594 71.710938 C 218.042969 62.175781 231.71875 62.078125 232.089844 71.597656 L 232.089844 157.0625 C 232.089844 157.894531 232.082031 158.707031 232.070312 159.5 C 223.109375 160.050781 215.082031 166.234375 212.632812 175.371094 L 207.621094 194.085938 C 207.617188 194.085938 207.617188 194.089844 207.617188 194.089844 C 207.617188 194.097656 207.613281 194.101562 207.613281 194.105469 L 193.292969 247.546875 C 187.722656 268.335938 189.738281 275.671875 192.949219 283.101562 C 194.820312 287.429688 196.433594 291.167969 192.171875 307.078125 L 182.324219 343.828125 L 163.597656 311.390625 C 161.621094 307.964844 157.242188 306.789062 153.816406 308.769531 C 150.390625 310.746094 149.21875 315.125 151.195312 318.550781 L 181.09375 370.339844 C 183.082031 373.796875 187.511719 374.921875 190.878906 372.960938 C 194.300781 370.984375 195.476562 366.605469 193.5 363.179688 L 192.453125 361.371094 L 206.007812 310.785156 C 211.152344 291.585938 209.191406 284.582031 206.097656 277.417969 C 204.199219 273.027344 202.40625 268.882812 207.128906 251.253906 L 216.214844 217.351562 C 218.167969 218.691406 220.378906 219.730469 222.792969 220.378906 C 227.234375 221.570312 231.726562 221.269531 235.746094 219.785156 C 235.972656 220.261719 236.222656 220.726562 236.488281 221.1875 C 239.359375 226.164062 243.984375 229.71875 249.503906 231.199219 C 255.027344 232.679688 260.808594 231.910156 265.78125 229.039062 C 270.757812 226.167969 274.3125 221.542969 275.789062 216.019531 L 295.605469 142.0625 C 296.625 138.261719 300.546875 135.996094 304.351562 137.015625 C 306.175781 137.503906 307.710938 138.6875 308.667969 140.351562 C 309.628906 142.011719 309.886719 143.929688 309.398438 145.757812 L 293.875 203.699219 C 286.21875 209.847656 283.785156 220.894531 288.324219 230.675781 L 291.972656 238.546875 C 278.878906 238.714844 266.09375 243.941406 256.613281 253.421875 C 253.816406 256.21875 253.816406 260.753906 256.613281 263.550781 C 259.410156 266.347656 263.945312 266.347656 266.742188 263.550781 C 275.9375 254.355469 289.457031 250.730469 302.019531 254.097656 C 304.707031 254.820312 307.566406 253.917969 309.355469 251.789062 C 311.144531 249.660156 311.539062 246.6875 310.371094 244.167969 L 301.316406 224.644531 C 299.683594 221.125 299.953125 216.453125 303.632812 214.328125 C 306.96875 212.402344 311.3125 213.652344 313.527344 217.171875 C 313.542969 217.199219 313.5625 217.230469 313.582031 217.257812 L 330.097656 242.714844 C 331.136719 244.316406 334.144531 249.953125 329.273438 255.207031 L 282.085938 306.070312 C 281.292969 306.925781 280.722656 307.960938 280.417969 309.089844 L 265.464844 364.90625 C 264.441406 368.726562 266.707031 372.652344 270.527344 373.675781 C 274.246094 374.707031 278.289062 372.464844 279.300781 368.613281 L 293.796875 314.511719 L 339.773438 264.945312 C 347.570312 256.539062 348.488281 244.753906 342.113281 234.921875 L 337.300781 227.503906 L 366.253906 198.546875 C 370.296875 194.503906 372.523438 189.117188 372.523438 183.371094 Z M 40.5625 284.167969 C 38.925781 285.113281 37.003906 285.363281 35.148438 284.867188 C 33.296875 284.371094 31.753906 283.195312 30.808594 281.558594 C 30.804688 281.546875 30.796875 281.539062 30.792969 281.527344 L 21.121094 264.773438 C 19.152344 261.363281 20.324219 256.988281 23.734375 255.019531 C 25.371094 254.074219 27.292969 253.824219 29.144531 254.324219 C 31 254.820312 32.539062 255.992188 33.484375 257.632812 L 43.171875 274.410156 C 43.171875 274.410156 43.175781 274.414062 43.175781 274.414062 C 45.144531 277.824219 43.972656 282.199219 40.5625 284.167969 Z M 67.097656 272.929688 C 65.460938 273.878906 63.539062 274.125 61.6875 273.628906 C 59.832031 273.132812 58.292969 271.957031 57.347656 270.320312 L 40.539062 241.203125 C 38.566406 237.953125 39.820312 233.28125 43.152344 231.453125 C 44.789062 230.507812 46.710938 230.257812 48.566406 230.753906 C 50.417969 231.25 51.960938 232.425781 52.90625 234.066406 L 69.699219 263.15625 C 69.703125 263.164062 69.707031 263.171875 69.710938 263.179688 C 71.679688 266.589844 70.507812 270.960938 67.097656 272.929688 Z M 95.441406 264.8125 C 92.03125 266.78125 87.65625 265.609375 85.6875 262.199219 L 61.742188 220.71875 C 59.773438 217.3125 60.945312 212.933594 64.351562 210.96875 C 67.761719 209 72.136719 210.171875 74.105469 213.582031 L 86.191406 234.515625 C 85.226562 243.375 90.148438 252.039062 98.632812 256.339844 C 99.074219 257.65625 99.121094 259.085938 98.75 260.472656 C 98.25 262.324219 97.078125 263.867188 95.441406 264.8125 Z M 94.390625 220.070312 L 90.085938 212.613281 C 90.082031 212.609375 90.082031 212.605469 90.078125 212.601562 C 86.886719 207.214844 92.066406 200.429688 98.105469 202.152344 C 99.957031 202.648438 101.5 203.824219 102.445312 205.464844 L 108.304688 215.613281 C 103.167969 215.476562 98.273438 217.109375 94.390625 220.070312 Z M 226.5 206.542969 C 222.703125 205.527344 220.441406 201.617188 221.445312 197.820312 L 226.46875 179.078125 C 227.488281 175.277344 231.410156 173.011719 235.210938 174.03125 C 239.015625 175.050781 241.277344 178.972656 240.257812 182.773438 C 240.257812 182.777344 240.257812 182.777344 240.257812 182.78125 L 235.25 201.476562 C 235.246094 201.484375 235.246094 201.488281 235.246094 201.496094 C 234.226562 205.296875 230.304688 207.5625 226.5 206.542969 Z M 261.957031 212.316406 C 261.464844 214.140625 260.28125 215.675781 258.621094 216.636719 C 256.960938 217.59375 255.039062 217.851562 253.210938 217.363281 C 251.386719 216.875 249.851562 215.691406 248.890625 214.027344 C 247.933594 212.367188 247.675781 210.445312 248.164062 208.617188 L 254.09375 186.488281 C 254.09375 186.488281 254.09375 186.484375 254.09375 186.480469 C 254.097656 186.46875 256.863281 176.148438 256.863281 176.148438 C 257.355469 174.320312 258.539062 172.785156 260.199219 171.828125 C 261.859375 170.867188 263.78125 170.609375 265.609375 171.097656 C 269.402344 172.113281 271.667969 176.023438 270.664062 179.820312 Z M 356.125 188.417969 L 329.328125 215.21875 L 325.621094 209.5 C 324.207031 207.265625 322.476562 205.367188 320.527344 203.824219 L 346.03125 178.320312 C 352.972656 171.886719 362.558594 181.484375 356.125 188.417969 Z M 356.125 188.417969 " fill-opacity="1" fill-rule="nonzero"/></g><path fill="rgb(100%, 100%, 100%)" d="M 44.953125 115.570312 L 68.671875 129.261719 C 72.035156 131.222656 76.464844 130.097656 78.453125 126.640625 C 80.433594 123.214844 79.257812 118.835938 75.832031 116.859375 L 52.117188 103.164062 C 43.722656 98.726562 36.914062 110.523438 44.953125 115.570312 Z M 44.953125 115.570312 " fill-opacity="1" fill-rule="nonzero"/><path fill="rgb(100%, 100%, 100%)" d="M 69.28125 80.792969 C 76.242188 87.257812 85.871094 77.617188 79.410156 70.664062 L 60.425781 51.679688 C 53.464844 45.214844 43.835938 54.851562 50.296875 61.808594 Z M 69.28125 80.792969 " fill-opacity="1" fill-rule="nonzero"/><path fill="rgb(100%, 100%, 100%)" d="M 276.613281 62.28125 C 279.84375 64.492188 284.324219 63.6875 286.566406 60.394531 L 303.851562 35.027344 C 306.078125 31.757812 305.234375 27.304688 301.96875 25.074219 C 298.699219 22.847656 294.242188 23.691406 292.015625 26.960938 L 274.730469 52.328125 C 272.503906 55.597656 273.347656 60.050781 276.613281 62.28125 Z M 276.613281 62.28125 " fill-opacity="1" fill-rule="nonzero"/><path fill="rgb(100%, 100%, 100%)" d="M 287.160156 101.539062 C 289.828125 104.472656 294.355469 104.675781 297.277344 102.023438 L 317.347656 83.78125 C 320.273438 81.121094 320.488281 76.59375 317.828125 73.664062 C 315.167969 70.738281 310.640625 70.523438 307.714844 73.183594 L 287.644531 91.421875 C 284.714844 94.082031 284.5 98.613281 287.160156 101.539062 Z M 287.160156 101.539062 " fill-opacity="1" fill-rule="nonzero"/><path fill="rgb(100%, 100%, 100%)" d="M 156.097656 287.464844 C 165.589844 287.113281 165.582031 273.492188 156.097656 273.140625 L 156.09375 273.140625 C 146.601562 273.496094 146.613281 287.117188 156.097656 287.464844 Z M 156.097656 287.464844 " fill-opacity="1" fill-rule="nonzero"/></svg>