<svg xmlns="http://www.w3.org/2000/svg" xmlns:xlink="http://www.w3.org/1999/xlink" width="500" zoomAndPan="magnify" viewBox="0 0 375 374.999991" height="500" preserveAspectRatio="xMidYMid meet" version="1.0"><path fill="rgb(100%, 100%, 100%)" d="M 90.230469 251.644531 C 94.898438 247.558594 99.199219 243.390625 103.386719 240.214844 C 105.449219 238.574219 107.234375 236.847656 108.976562 235.488281 C 110.714844 234.125 112.210938 232.839844 113.421875 231.636719 C 107.703125 235.019531 102.449219 239.144531 97.238281 243.300781 C 104.4375 236.320312 112.691406 230.378906 121.722656 226.019531 C 130.574219 221.25 140.175781 218.320312 149.65625 215.144531 C 149.351562 213.976562 149.160156 213.359375 155.6875 211.355469 C 154.019531 211.722656 152.261719 212.101562 150.417969 212.511719 C 148.574219 212.9375 146.746094 213.667969 144.8125 214.253906 C 142.894531 214.867188 140.933594 215.511719 138.945312 216.15625 C 136.941406 216.785156 135.050781 217.765625 133.078125 218.542969 C 131.128906 219.359375 129.167969 220.179688 127.238281 220.984375 C 125.335938 221.863281 123.550781 222.886719 121.75 223.78125 C 119.949219 224.671875 118.195312 225.566406 116.511719 226.398438 C 114.84375 227.292969 113.335938 228.273438 111.84375 229.105469 L 110.90625 227.585938 C 112.324219 226.617188 113.820312 225.535156 115.457031 224.570312 C 117.15625 223.691406 118.925781 222.769531 120.726562 221.820312 C 122.554688 220.910156 124.398438 219.886719 126.34375 219.039062 C 128.320312 218.261719 130.324219 217.472656 132.332031 216.683594 C 134.335938 215.9375 136.28125 215 138.332031 214.429688 C 140.363281 213.816406 142.371094 213.214844 144.316406 212.628906 C 146.277344 212.058594 148.148438 211.339844 150.007812 210.902344 C 151.851562 210.449219 153.621094 210.007812 155.304688 209.601562 C 155.175781 209.015625 154.925781 207.859375 154.792969 207.273438 C 154.660156 206.703125 161.496094 205.003906 168.503906 204.347656 C 166.777344 204.566406 164.597656 204.84375 162.199219 205.152344 C 159.796875 205.457031 157.25 206.175781 154.660156 206.6875 C 152.101562 207.300781 149.480469 207.710938 147.183594 208.429688 C 144.871094 209.160156 142.777344 209.804688 141.097656 210.332031 C 140.921875 209.761719 140.554688 208.632812 140.378906 208.0625 C 140.21875 207.59375 146.949219 205.050781 154.03125 203.789062 C 153.738281 202.621094 160.648438 199.898438 153.402344 200.878906 C 149.816406 201.652344 146.234375 202.355469 142.765625 203.570312 C 139.296875 204.726562 135.726562 205.605469 132.34375 207.011719 C 146 201.785156 156.652344 198.667969 163.851562 196.691406 C 171.035156 194.6875 174.695312 193.050781 174.636719 192.273438 C 167.203125 193.589844 166.984375 191.964844 159.550781 193.488281 C 165.109375 192.40625 170.714844 190.925781 175.542969 190.210938 C 180.375 189.523438 184.425781 188.863281 186.828125 188.335938 C 189.242188 187.78125 189.769531 187.445312 188.144531 187.09375 C 186.34375 186.828125 181.984375 186.726562 174.226562 186.917969 C 157.265625 188.207031 140.304688 191.953125 124.3125 198.417969 C 108.300781 204.84375 93.359375 213.976562 80.234375 225.113281 C 53.789062 247.398438 35.207031 277.339844 23.835938 308.949219 L 21.683594 314.90625 C 21.332031 315.898438 20.910156 317.613281 20.558594 318.945312 C 20.148438 320.363281 19.898438 321.828125 19.722656 323.304688 C 18.875 329.15625 19.167969 335.273438 20.761719 340.996094 C 23.835938 352.46875 31.371094 362.625 41.777344 368.539062 C 46.925781 371.507812 52.695312 373.484375 58.589844 374.246094 C 65.324219 374.859375 68.148438 374.539062 72.332031 374.609375 L 96.054688 374.550781 C 127.675781 374.449219 159.328125 374.347656 190.984375 374.246094 C 222.636719 374.097656 254.289062 373.953125 285.914062 373.792969 L 309.617188 373.675781 L 311.113281 373.660156 L 311.84375 373.660156 L 312.910156 373.601562 L 317.214844 373.308594 C 320.082031 372.855469 322.949219 372.34375 325.714844 371.347656 C 331.234375 369.503906 336.382812 366.5625 340.746094 362.757812 C 349.394531 355.089844 354.96875 344.097656 355.65625 332.464844 C 356.023438 326.714844 355.117188 320.773438 353.402344 315.546875 L 349.058594 303.753906 C 336.632812 272.671875 317.054688 243.683594 290.113281 222.550781 C 276.707031 212.015625 261.605469 203.527344 245.539062 197.761719 C 229.457031 192.039062 212.554688 189.054688 195.796875 188.441406 C 191.949219 188.425781 189.546875 188.527344 188.128906 188.671875 C 186.78125 188.894531 186.34375 189.128906 186.34375 189.390625 C 186.34375 189.917969 188.144531 190.515625 188.144531 191.101562 C 203.214844 191.277344 218.347656 193.109375 232.148438 196.75 C 245.933594 200.527344 258.109375 206.277344 267.78125 212.25 C 271.03125 214.195312 269.113281 213.699219 267.121094 213.417969 C 265.089844 213.199219 263.023438 213.140625 266.011719 215.367188 C 269.171875 217.269531 273.898438 220.210938 278.492188 223.328125 C 280.703125 224.996094 282.914062 226.675781 284.933594 228.214844 C 285.941406 228.976562 286.90625 229.722656 287.816406 230.394531 C 288.648438 231.140625 289.425781 231.84375 290.125 232.441406 C 294.371094 238.664062 282.386719 230.320312 286.628906 236.527344 C 287.667969 238.046875 289.804688 240.316406 292.511719 242.949219 C 295.085938 245.730469 298.085938 248.980469 301.101562 252.226562 C 303.984375 255.59375 306.707031 259.089844 309.046875 262.046875 C 311.242188 265.105469 312.824219 267.785156 313.628906 269.378906 C 324.238281 287.789062 305.433594 257.6875 289.496094 243.886719 C 293.84375 249.433594 279.210938 234.460938 278.15625 235.78125 C 277.425781 236.714844 276.707031 237.667969 278.699219 240.578125 C 279.664062 242.042969 281.140625 244.222656 283.613281 247.089844 C 286.191406 249.84375 289.21875 253.910156 293.492188 259.003906 C 297.3125 264.492188 291.765625 260.496094 290.816406 261.390625 C 303.765625 275.992188 314.214844 293.554688 322.015625 312.535156 L 324.675781 319.792969 C 325.511719 322.074219 326.695312 325.121094 326.828125 326.070312 C 327.546875 328.867188 327.414062 331.71875 326.476562 334.425781 C 324.722656 339.988281 319.628906 344.1875 313.964844 344.992188 L 311.636719 345.152344 L 307.453125 345.183594 L 299.097656 345.253906 L 282.414062 345.417969 C 271.292969 345.546875 260.199219 345.695312 249.167969 345.839844 C 227.097656 346.175781 205.25 346.617188 183.855469 347.214844 C 148.195312 348.109375 108.800781 347.917969 69.476562 347.742188 C 63.742188 347.757812 61.5625 347.699219 58.648438 346.71875 C 55.867188 345.78125 53.335938 344.15625 51.304688 342.007812 C 47.132812 337.675781 45.464844 331.457031 46.664062 325.820312 L 47.25 323.625 L 48.390625 320.4375 C 49.136719 318.328125 49.882812 316.207031 50.628906 314.113281 C 52.09375 309.898438 54.023438 305.917969 55.648438 301.867188 C 57.390625 297.855469 59.453125 294.066406 61.269531 290.203125 C 63.273438 286.441406 65.4375 282.84375 67.457031 279.199219 C 72.769531 270.652344 81.214844 260.1875 90.230469 251.644531 Z M 214.089844 172.738281 C 208.515625 175.328125 202.164062 177.054688 195.429688 178.179688 C 188.539062 179.03125 181.121094 178.78125 174.359375 177.273438 C 160.707031 174.363281 148.542969 167.835938 137.773438 159.726562 C 127.019531 151.589844 117.929688 141.230469 111.140625 129.566406 C 104.378906 117.917969 100.210938 104.617188 99.667969 91.445312 C 99.007812 76.269531 102.40625 60.363281 110.042969 46.375 C 113.773438 39.320312 118.722656 32.941406 124.179688 27.042969 C 129.914062 21.410156 136.164062 16.171875 143.234375 12.160156 C 150.242188 8.152344 157.765625 4.84375 165.652344 2.925781 C 173.464844 0.761719 181.589844 0 189.59375 0 C 205.632812 0.308594 221.566406 4.710938 234.871094 12.921875 C 234.210938 13.917969 229.03125 12.863281 233.027344 15.980469 C 241.105469 21.949219 243.898438 26.269531 244.9375 28.667969 C 245.960938 31.113281 245.113281 31.945312 244.277344 32.808594 C 243.871094 33.234375 241.324219 30.921875 239.203125 28.988281 C 236.917969 27.261719 235.074219 25.902344 236.550781 27.746094 C 231.285156 23.328125 223.015625 19.273438 217.675781 17.429688 C 212.230469 15.746094 210.066406 15.425781 216.136719 18.292969 C 217.089844 18.90625 218.84375 19.742188 220.894531 20.898438 C 222.988281 21.980469 225.476562 23.164062 227.757812 24.730469 C 228.929688 25.460938 230.085938 26.195312 231.210938 26.910156 C 232.234375 27.746094 233.214844 28.550781 234.125 29.3125 C 235.921875 30.820312 237.269531 32.179688 237.753906 33.304688 C 239.699219 37.492188 232.324219 33.191406 234.242188 37.359375 C 237.355469 39.949219 242.960938 45.832031 245.171875 49.242188 C 246.5625 53.089844 239.933594 48.21875 242.273438 51.351562 C 248.332031 61.082031 254.507812 75.378906 254.597656 90.789062 C 254.011719 90.789062 253.410156 91.886719 252.882812 91.886719 C 252.621094 91.886719 252.386719 91.609375 252.167969 90.789062 C 251.917969 90.101562 251.65625 88.972656 251.421875 87.160156 C 250.453125 71.28125 243.167969 55.972656 231.472656 45.160156 C 219.855469 34.285156 204.125 28.171875 188.246094 28.34375 C 172.367188 28.492188 156.855469 34.886719 145.574219 45.90625 C 134.21875 56.835938 127.382812 72.085938 126.84375 87.714844 C 126.519531 95.414062 127.839844 102.480469 130.824219 109.605469 C 133.78125 116.644531 138.285156 123.332031 143.816406 129.246094 C 149.335938 135.144531 155.933594 140.222656 162.945312 144.15625 C 169.910156 148.050781 177.519531 150.902344 184.382812 151.589844 C 197.1875 153.070312 213.519531 145.941406 225.753906 135.625 C 238.164062 125.25 247.324219 111.203125 249.445312 96.742188 C 249.753906 93.4375 250.175781 91.578125 250.585938 90.789062 C 250.894531 89.691406 251.375 90.335938 251.726562 91.386719 C 252.078125 92.457031 252.429688 94.328125 252.796875 96.671875 C 252.898438 98.984375 252.925781 101.777344 252.664062 104.574219 C 252.984375 100.871094 254.566406 101.207031 254.757812 97.433594 C 255.648438 97.550781 256.453125 99.523438 256.734375 103.636719 C 256.894531 105.714844 256.394531 108.203125 255.914062 111.246094 C 255.589844 112.753906 254.976562 114.320312 254.40625 116.03125 C 254.097656 116.878906 253.777344 117.757812 253.441406 118.664062 C 253 119.542969 252.53125 120.4375 252.0625 121.34375 L 253.601562 118.652344 L 254.859375 115.8125 C 255.679688 113.925781 256.644531 112.066406 257.15625 110.074219 C 258.984375 106.316406 258.867188 110.617188 259.980469 111.042969 C 259.425781 113.132812 258.429688 115.066406 257.859375 116.574219 C 257.273438 118.082031 256.964844 119.132812 257.230469 119.265625 C 257.773438 119.527344 258.839844 120.054688 259.382812 120.320312 C 261.34375 116.292969 264.605469 107.835938 265.132812 103.328125 C 264.925781 104.425781 264.707031 105.539062 264.519531 106.578125 C 264.226562 107.585938 263.960938 108.523438 263.710938 109.34375 C 263.273438 110.984375 263.070312 112.109375 263.363281 112.199219 C 263.917969 112.402344 265.042969 112.78125 265.617188 112.972656 C 265.148438 115.3125 263.992188 117.683594 262.863281 120.230469 C 261.824219 122.820312 260.199219 125.25 258.707031 127.738281 C 255.621094 132.65625 251.992188 137.148438 249.167969 140.792969 L 250.5 141.960938 C 253.851562 138.65625 257.464844 133.929688 260.421875 128.761719 C 261.855469 126.15625 263.390625 123.613281 264.414062 120.933594 C 265.5 118.3125 266.667969 115.898438 267.296875 113.558594 C 266.902344 115.972656 266.652344 117.171875 266.742188 117.859375 C 266.84375 118.5625 267.253906 118.738281 267.808594 118.957031 C 267.121094 120.683594 266.40625 122.382812 265.660156 124.066406 C 264.882812 125.75 263.875 127.285156 262.964844 128.878906 C 261.195312 132.113281 258.898438 134.921875 256.761719 137.851562 C 254.523438 140.703125 252.121094 143.382812 249.78125 146.117188 C 247.277344 148.679688 245.011719 151.519531 242.464844 154.09375 C 244.351562 152.585938 246.09375 150.917969 247.777344 149.191406 C 249.488281 147.492188 251.230469 145.824219 252.738281 143.921875 C 250.761719 148.621094 244.703125 154.871094 237.253906 160.179688 C 235.351562 161.453125 233.492188 162.859375 231.472656 164.015625 C 229.457031 165.171875 227.449219 166.3125 225.488281 167.425781 C 221.40625 169.402344 217.585938 171.332031 214.089844 172.738281 " fill-opacity="1" fill-rule="nonzero"/></svg>