<svg xmlns="http://www.w3.org/2000/svg" xmlns:xlink="http://www.w3.org/1999/xlink" width="500" zoomAndPan="magnify" viewBox="0 0 375 374.999991" height="500" preserveAspectRatio="xMidYMid meet" version="1.0"><defs><clipPath id="id1"><path d="M 22 71.25 L 40 71.25 L 40 111 L 22 111 Z M 22 71.25 " clip-rule="nonzero"/></clipPath><clipPath id="id2"><path d="M 0.542969 71.25 L 193 71.25 L 193 303.75 L 0.542969 303.75 Z M 0.542969 71.25 " clip-rule="nonzero"/></clipPath><clipPath id="id3"><path d="M 210.644531 71.25 L 374.574219 71.25 L 374.574219 303.75 L 210.644531 303.75 Z M 210.644531 71.25 " clip-rule="nonzero"/></clipPath></defs><g clip-path="url(#id1)"><path fill="rgb(100%, 100%, 100%)" d="M 25.726562 75.164062 L 27.683594 78.796875 C 28.800781 80.195312 27.191406 79.777344 28.265625 81.4375 C 29.339844 83.101562 29.636719 83.554688 29.636719 83.554688 C 29.636719 83.554688 29.847656 83.816406 30.738281 85.242188 C 31.625 86.667969 32.703125 85.167969 31.875 87.082031 C 31.039062 89.003906 30.898438 89.703125 30.898438 89.703125 C 30.898438 89.703125 36.988281 99.929688 37.355469 100.960938 C 37.726562 101.996094 37.191406 101.859375 38.308594 105.632812 C 39.425781 109.410156 39.285156 110.246094 39.285156 110.246094 C 39.285156 110.246094 33.398438 106.761719 32.707031 105.203125 C 32.019531 103.640625 30.203125 99.542969 30.203125 99.542969 L 25.726562 88.863281 C 25.726562 88.863281 24.609375 84.390625 24.46875 83.550781 C 24.328125 82.714844 23.496094 79.496094 23.496094 79.496094 L 23.496094 78.238281 L 22.753906 73.304688 L 22.417969 71.339844 L 25.726562 75.164062 " fill-opacity="1" fill-rule="nonzero"/></g><g clip-path="url(#id2)"><path fill="rgb(100%, 100%, 100%)" d="M 16.144531 108.257812 C 16.351562 108.679688 16.710938 109.398438 16.898438 109.769531 C 16.660156 109.300781 16.410156 108.800781 16.144531 108.257812 Z M 14.476562 109.175781 L 14.476562 109.179688 Z M 192.679688 131.804688 L 192.671875 131.796875 C 192.414062 131.640625 192.078125 131.726562 191.917969 131.984375 C 187.027344 140.167969 182.128906 148.355469 177.046875 156.855469 C 177.199219 155.96875 177.171875 155.21875 177.457031 154.621094 C 179.011719 151.363281 180.734375 148.1875 182.21875 144.902344 C 183.542969 141.96875 184.632812 138.921875 185.820312 135.925781 C 185.609375 135.824219 185.398438 135.726562 185.1875 135.625 C 181.011719 143.242188 176.839844 150.855469 172.613281 158.558594 C 171.523438 157.25 170.652344 156.695312 169.863281 156.863281 C 169.28125 155.554688 169.027344 154.976562 168.925781 154.746094 L 168.929688 154.738281 C 168.996094 154.691406 174.785156 150.269531 175.097656 146.765625 L 175.101562 146.757812 C 175.511719 145.957031 175.921875 145.15625 176.332031 144.347656 L 176.382812 144.273438 C 176.851562 143.355469 178.976562 139.179688 181.28125 137.917969 C 182.917969 137.023438 184.097656 132.070312 184.792969 127.710938 C 185.3125 126.695312 185.832031 125.671875 186.355469 124.652344 L 186.375 124.601562 C 186.882812 123.617188 186.75 122.46875 186.082031 121.648438 L 188.203125 117.585938 C 188.203125 117.585938 189.042969 116.113281 190.21875 114.4375 C 191.394531 112.765625 191.136719 110.875 190.21875 107.949219 L 190.214844 107.945312 C 190.472656 107.492188 190.738281 107.050781 190.992188 106.605469 L 191.042969 106.507812 C 191.570312 105.507812 191.039062 104.273438 189.957031 103.945312 L 189.933594 103.933594 C 189.933594 103.933594 189.878906 102.066406 189.667969 101.234375 C 189.460938 100.394531 187.152344 98.71875 187.152344 98.71875 L 186.210938 96.945312 L 186.332031 96.660156 C 188.0625 93.09375 194.015625 82.355469 192.015625 79.492188 C 190.828125 77.785156 190.308594 78.238281 189.5 77.84375 C 188.378906 77.171875 183.875 80.671875 183.042969 82.898438 C 182.566406 84.179688 182.566406 85.648438 182.011719 86.882812 C 181.71875 87.539062 181.382812 88.175781 181.042969 88.804688 L 179.503906 91.480469 L 171.640625 89.492188 C 171.640625 89.492188 168.914062 89.910156 167.863281 88.234375 C 166.820312 86.554688 164.941406 89 164.941406 89 C 163.65625 88.738281 162.804688 88.621094 162.765625 88.765625 C 161.992188 91.371094 160.429688 93.832031 158.765625 96.054688 C 156.6875 98.835938 154.191406 101.296875 151.941406 103.949219 C 151.394531 104.59375 151.265625 105.625 150.664062 106.167969 C 147.933594 107.335938 147.875 109.605469 147.875 109.605469 L 145.015625 113.179688 C 145.015625 113.179688 144.511719 118.253906 143.757812 119.617188 C 143.164062 120.539062 142.433594 121.382812 141.648438 122.039062 C 141.375 122.269531 141.125 122.402344 140.886719 122.460938 C 137.007812 123.375 133.902344 126.304688 132.085938 129.855469 C 129.175781 135.5625 126.710938 141.484375 123.898438 147.285156 C 123.875 147.3125 123.101562 148.140625 122.148438 149.1875 C 122.050781 149.121094 121.957031 149.019531 121.910156 148.890625 L 121.894531 148.863281 C 121.664062 148.292969 120.855469 148.335938 120.671875 148.921875 C 120.304688 150.15625 120.023438 151.277344 119.570312 152.128906 C 119.253906 152.511719 118.988281 152.84375 118.816406 153.085938 C 114.472656 156.613281 112.957031 161.632812 110.839844 166.375 C 110.839844 166.375 108.460938 171.671875 107.917969 172.894531 C 107.839844 173.058594 107.761719 173.226562 107.6875 173.394531 C 107.308594 174.238281 106.636719 175.730469 106.355469 176.34375 L 106.339844 176.382812 C 106.285156 176.5 106.253906 176.578125 106.238281 176.605469 L 106.230469 176.621094 L 103.289062 180.5 C 100.972656 180.507812 98.84375 179.171875 97.183594 181.371094 C 96.539062 182.21875 96.222656 183.3125 95.753906 184.296875 C 95.929688 184.375 96.105469 184.457031 96.28125 184.535156 C 96.617188 184.019531 96.949219 183.5 97.695312 182.339844 C 96.652344 185.636719 95.9375 187.90625 95.167969 190.355469 C 94.039062 186.960938 92.9375 183.5625 91.816406 180.167969 L 91.800781 180.117188 C 90.472656 176.082031 91.425781 178.980469 90.746094 175.027344 C 90.0625 171.070312 90.511719 172.296875 89.878906 169.15625 C 89.25 166.011719 89.878906 169.148438 89.910156 167.027344 C 90.585938 166.535156 91.484375 166.109375 92.546875 165.609375 C 92.660156 162.382812 92.375 162.570312 90.777344 160.164062 L 90.746094 160.105469 C 90.746094 158.855469 90.734375 157.542969 90.71875 156.367188 C 90.660156 152.574219 90.511719 153.640625 88.585938 149.445312 C 88.597656 148.628906 88.585938 147.816406 88.488281 147.011719 C 88.265625 145.085938 87.488281 143.234375 87.085938 141.328125 C 87.027344 140.769531 86.941406 140.160156 86.816406 139.492188 C 86.785156 139.261719 86.746094 139.035156 86.6875 138.8125 C 85.671875 133.976562 83.152344 132.417969 83.109375 132.394531 C 83.019531 132.054688 82.933594 131.722656 82.855469 131.398438 C 82.4375 129.539062 82.40625 127.710938 80.480469 126.648438 L 79.777344 125.117188 L 78.78125 122.9375 C 78.453125 122.183594 78.117188 121.429688 77.757812 120.707031 L 77.753906 120.695312 L 77.753906 120.691406 C 77.273438 119.730469 76.742188 118.820312 76.070312 118.027344 C 75.667969 117.546875 75.253906 117.074219 74.839844 116.605469 C 74.574219 116.304688 73.984375 115.636719 73.609375 115.207031 C 73.117188 114.644531 69.964844 108.777344 69.964844 108.777344 L 69.964844 105.214844 C 69.964844 105.214844 67.867188 97.039062 67.449219 96.199219 C 67.027344 95.363281 63.046875 91.378906 63.046875 91.378906 L 63.046875 88.863281 L 60.328125 86.445312 L 62.230469 91.523438 C 62.042969 91.195312 61.859375 90.863281 61.707031 90.519531 C 61.121094 89.21875 60.757812 87.816406 60.328125 86.445312 C 60.25 86.203125 59.984375 86.078125 59.75 86.167969 L 59.6875 86.183594 C 59.457031 86.269531 59.339844 86.523438 59.421875 86.753906 C 62.378906 95.089844 65.34375 103.425781 68.300781 111.761719 C 68.175781 111.847656 62.148438 100.449219 59.070312 94.300781 C 58.960938 94.085938 58.699219 94 58.484375 94.105469 L 58.476562 94.109375 C 58.265625 94.210938 58.167969 94.457031 58.253906 94.671875 C 61.054688 101.882812 63.859375 109.09375 66.664062 116.308594 C 66.332031 116.222656 65.996094 116.140625 65.667969 116.054688 C 65.585938 116.164062 65.507812 116.320312 65.441406 116.515625 C 63.910156 115.234375 61.9375 113.507812 59.429688 111.703125 C 59.101562 110.582031 58.757812 109.464844 58.339844 108.375 C 58.277344 108.21875 58.1875 108.070312 58.078125 107.929688 C 57.203125 106.824219 55.34375 107.628906 55.609375 109.011719 L 55.617188 109.035156 C 56.039062 111.09375 56.851562 113.074219 57.359375 115.121094 C 57.515625 115.738281 57.175781 116.484375 57.007812 117.507812 C 54.632812 112.144531 52.21875 107.429688 50.464844 102.472656 C 49.34375 99.304688 47.679688 97.265625 44.03125 96.367188 C 44.03125 97.289062 43.835938 98.164062 44.0625 98.910156 C 44.984375 101.921875 45.960938 104.929688 47.0625 107.882812 C 48.34375 111.328125 49.820312 114.703125 51.105469 118.148438 C 51.363281 118.832031 51.140625 119.699219 51.140625 120.480469 L 50.292969 120.636719 C 47.722656 114.148438 45.160156 107.664062 42.589844 101.175781 C 42.46875 100.878906 42.140625 100.726562 41.84375 100.839844 L 41.832031 100.84375 C 41.523438 100.953125 41.367188 101.296875 41.484375 101.601562 C 43.386719 106.644531 45.289062 111.691406 47.191406 116.738281 C 45.511719 113.425781 43.828125 110.121094 42.152344 106.8125 C 42 107.003906 41.851562 107.199219 41.703125 107.394531 C 40.734375 106.621094 39.277344 106.042969 38.882812 105.046875 C 36.886719 100.03125 35.382812 94.8125 33.277344 89.847656 C 32.011719 86.871094 29.996094 84.210938 28.265625 81.4375 C 27.273438 79.847656 26.027344 78.402344 25.164062 76.75 C 24.304688 75.105469 23.710938 73.324219 23.027344 71.589844 C 22.9375 71.347656 22.660156 71.238281 22.421875 71.339844 L 22.417969 71.339844 C 22.1875 71.4375 22.078125 71.707031 22.171875 71.933594 C 27.507812 84.566406 32.84375 97.203125 38.171875 109.832031 C 33.164062 100.332031 28.152344 90.835938 23.144531 81.332031 C 22.871094 80.816406 22.089844 81.191406 22.328125 81.730469 C 25.539062 88.988281 28.75 96.253906 32.027344 103.664062 L 30.855469 105.074219 L 32.925781 107.800781 L 33.484375 109.757812 L 30.855469 110.667969 L 29.660156 112.066406 C 29.660156 112.066406 29.851562 109.757812 29.015625 108.21875 C 28.175781 106.679688 26.105469 102.75 26.105469 102.75 L 26.0625 102.636719 C 25.605469 101.410156 25.136719 100.183594 24.648438 98.96875 L 24.578125 98.785156 L 24.574219 98.78125 C 24.527344 98.664062 24.476562 98.546875 24.433594 98.429688 C 24.175781 97.804688 23.539062 97.347656 22.894531 96.882812 C 22.375 96.503906 21.398438 95.5 21.398438 95.5 L 20.980469 95.988281 C 20.980469 95.988281 20.699219 96.546875 20.417969 97.179688 C 20.214844 97.628906 21.257812 98.601562 21.71875 99.25 L 21.75 99.410156 C 21.789062 99.539062 21.832031 99.671875 21.875 99.820312 C 21.695312 99.980469 21.839844 100.121094 22.03125 100.324219 C 22.148438 100.710938 22.277344 101.144531 22.417969 101.601562 C 22.09375 102.769531 22.65625 104.863281 22.796875 105.421875 C 22.9375 105.980469 22.9375 105.980469 22.9375 105.980469 C 22.9375 105.980469 23.011719 106.398438 22.417969 105.804688 L 22.414062 105.804688 C 21.457031 103.15625 20.492188 100.507812 19.339844 97.941406 C 17.984375 94.921875 15.675781 92.28125 14.578125 89.199219 C 13.324219 85.667969 10.554688 84.382812 7.453125 82.925781 C 7.929688 85.589844 8.496094 88.214844 9.574219 90.609375 C 9.652344 90.785156 9.726562 90.953125 9.808594 91.128906 C 9.429688 90.949219 9.167969 90.792969 9.167969 90.792969 C 9.167969 90.792969 9.554688 91.167969 10.078125 91.71875 C 11.226562 94.214844 12.4375 96.683594 13.65625 99.148438 C 13.875 100.019531 14.125 100.917969 14.335938 101.71875 C 14.894531 103.816406 15.035156 102.417969 15.105469 104.863281 C 15.128906 105.597656 15.207031 106.148438 15.308594 106.578125 C 12.617188 101.089844 8.96875 93.445312 6.664062 88.367188 C 6.539062 88.078125 6.207031 87.953125 5.914062 88.070312 L 5.84375 88.097656 L 5.78125 88.140625 C 5.664062 87.847656 5.601562 87.671875 5.601562 87.671875 C 5.601562 87.671875 5.183594 88.445312 5.113281 88.863281 C 5.042969 89.285156 5.320312 90.191406 5.882812 91.308594 C 6.441406 92.425781 7.558594 94.589844 7.558594 94.589844 C 7.558594 94.589844 7.816406 94.585938 8.105469 94.710938 C 8.355469 95.285156 8.609375 95.863281 8.863281 96.433594 C 8.785156 97.257812 8.777344 97.988281 8.804688 98.5625 L 8.175781 97.367188 C 7.472656 96.039062 5.914062 95.304688 4.488281 95.796875 C 3.683594 96.074219 3.082031 96.679688 2.941406 97.992188 C 1.046875 97.152344 0.0625 97.523438 0.773438 99.519531 C 1.6875 102.089844 2.820312 104.589844 3.964844 107.0625 C 6.167969 111.816406 8.417969 116.550781 10.652344 121.300781 L 10.007812 124.289062 C 10.007812 124.289062 11.097656 127.488281 10.214844 128.453125 C 9.335938 129.417969 11.472656 132.675781 12.730469 133.53125 L 12.734375 133.535156 C 12.992188 135.050781 13.324219 136.546875 13.78125 138.003906 L 13.777344 138.019531 L 13.804688 138.09375 C 14.097656 139.027344 14.433594 139.945312 14.835938 140.84375 C 14.835938 140.84375 14.617188 146.09375 15.246094 147.769531 C 15.875 149.449219 16.925781 150.5 17.132812 151.125 C 17.34375 151.753906 18.390625 153.640625 18.390625 154.269531 C 18.390625 154.898438 19.441406 156.367188 19.441406 156.367188 C 19.441406 156.367188 21.953125 158.683594 22.164062 159.238281 C 22.371094 159.792969 22.164062 161.816406 22.164062 161.816406 L 22.164062 163.285156 L 23.902344 163.796875 C 24.5 165.375 24.941406 167.015625 25.457031 168.628906 C 25.613281 168.589844 25.769531 168.550781 25.921875 168.515625 C 25.675781 167 26.53125 165.492188 27.980469 165 L 30.683594 167.875 L 30.757812 172.089844 C 30.757812 172.089844 29.714844 175.445312 28.875 176.492188 C 28.035156 177.542969 28.875 176.492188 27.40625 176.703125 L 28.242188 186.765625 L 29.082031 188.441406 C 29.082031 188.441406 30.132812 190.75 31.179688 192.429688 C 31.179688 192.429688 30.757812 198.714844 31.179688 200.390625 C 31.597656 202.070312 31.808594 203.117188 32.019531 204.164062 C 32.230469 205.210938 32.4375 205.632812 32.855469 206.199219 C 33.277344 206.761719 33.695312 209.40625 34.320312 210.820312 C 34.949219 212.234375 37.140625 213.648438 37.160156 213.664062 L 37.167969 213.675781 C 37.222656 213.8125 37.964844 215.746094 38.402344 217.828125 L 38.40625 217.851562 C 38.855469 220.007812 39.019531 219.597656 40.789062 222.671875 C 41.054688 223.328125 41.292969 223.992188 41.53125 224.664062 C 41.554688 225.644531 40.613281 225.550781 40.613281 225.550781 C 40.613281 225.550781 40.824219 228.066406 41.660156 229.738281 C 42.496094 231.417969 44.722656 231.328125 45.632812 232.683594 L 45.695312 232.773438 C 45.84375 232.996094 45.988281 233.214844 46.132812 233.4375 L 46.246094 233.613281 C 48.445312 237.007812 50.261719 240.519531 50.285156 244.925781 C 50.308594 249.574219 51.242188 254.082031 53.953125 258.070312 C 54.75 259.246094 55.3125 260.636719 55.726562 262.007812 C 56.207031 263.601562 56.398438 265.28125 56.71875 266.925781 C 56.847656 263.492188 56.648438 260.136719 55.921875 256.898438 C 54.652344 251.238281 53.035156 245.660156 51.613281 240.035156 C 51.542969 239.757812 51.535156 239.46875 51.542969 239.175781 C 51.550781 239.1875 52.011719 239.503906 52.679688 239.984375 C 54.78125 246.210938 56.882812 252.445312 58.984375 258.675781 C 59.0625 258.910156 59.3125 259.042969 59.558594 258.972656 L 59.566406 258.96875 C 59.800781 258.898438 59.941406 258.65625 59.882812 258.417969 C 58.929688 254.375 58.671875 248.910156 58.652344 244.589844 C 59.089844 244.839844 59.511719 245.046875 60.328125 245.65625 L 60.328125 250.289062 L 61.371094 259.089844 L 65.363281 262.800781 C 66.277344 266.070312 67.183594 269.339844 68.09375 272.609375 L 68.234375 272.601562 L 68.183594 272.132812 C 68.042969 270.765625 68.773438 269.441406 69.972656 268.886719 C 69.8125 270.300781 69.625 272.210938 69.753906 272.71875 C 69.964844 273.558594 74.523438 278.289062 74.523438 278.289062 C 74.960938 280.078125 75.417969 281.917969 75.914062 283.933594 C 76.125 284.789062 77.207031 285.078125 77.816406 284.4375 L 78.105469 284.136719 L 78.160156 284.089844 C 78.695312 284.128906 79.261719 284.171875 79.796875 284.214844 C 80.195312 284.664062 80.886719 284.722656 81.351562 284.335938 C 82.921875 284.460938 82.542969 286.972656 82.753906 288.421875 C 82.960938 289.871094 87.023438 295.320312 86.960938 295.503906 C 86.417969 297.0625 85.804688 298.59375 85.234375 300.140625 C 85.640625 300.269531 86.074219 300.058594 86.21875 299.664062 C 86.613281 298.59375 87.015625 297.5 87.46875 296.265625 C 88.277344 297.347656 89.851562 299.378906 90.816406 301.132812 L 90.90625 301.300781 C 91.078125 301.625 91.230469 301.941406 91.347656 302.234375 C 92.363281 304.78125 92.8125 303.347656 92.8125 303.347656 L 96.746094 302.234375 C 96.746094 302.234375 96.558594 301.921875 96.246094 301.445312 L 96.460938 301.375 C 97.796875 301.078125 98.824219 301.027344 99.449219 300.5 C 99.863281 300.148438 99.734375 298.832031 99.488281 298.070312 C 98.824219 296.070312 97.980469 294.121094 97.175781 292.167969 C 96.867188 291.429688 96.457031 290.734375 96.109375 290.007812 C 98.78125 285.710938 98.054688 286.765625 98.683594 284.683594 C 98.847656 285.042969 99.011719 285.386719 99.167969 285.726562 C 101.46875 284.894531 103.550781 284.140625 106.457031 283.085938 C 105.417969 286.699219 104.9375 289.792969 103.652344 292.5 C 102.3125 295.324219 102.464844 297.972656 103.078125 300.878906 C 103.351562 302.183594 105.152344 302.351562 105.660156 301.113281 L 105.671875 301.09375 C 107.285156 297.101562 108.828125 293.082031 110.273438 289.03125 C 110.882812 287.324219 111.472656 285.617188 112.054688 283.902344 L 112.058594 283.902344 C 112.058594 283.902344 113 283.351562 114.234375 282.667969 C 112.242188 288.5 110.246094 294.335938 108.253906 300.171875 C 108.152344 300.488281 108.3125 300.832031 108.625 300.941406 L 108.636719 300.949219 C 108.957031 301.066406 109.3125 300.898438 109.425781 300.574219 C 111.605469 294.292969 113.78125 288.003906 115.960938 281.722656 C 116.226562 281.585938 116.488281 281.445312 116.746094 281.3125 C 115.746094 284.578125 114.738281 287.867188 113.699219 291.261719 C 113.121094 293.136719 114.039062 295.15625 115.839844 295.945312 L 115.902344 295.972656 C 117.984375 296.890625 120.40625 295.8125 121.125 293.648438 C 122.734375 288.777344 124.339844 283.90625 125.957031 279.015625 L 127.535156 274.230469 L 127.589844 274.070312 L 127.605469 274.03125 C 127.636719 273.925781 127.6875 273.78125 127.746094 273.613281 C 127.796875 273.445312 127.851562 273.28125 127.90625 273.117188 C 128 272.824219 128.117188 272.476562 128.242188 272.101562 C 128.285156 271.960938 128.335938 271.820312 128.378906 271.675781 C 128.441406 271.488281 128.496094 271.335938 128.535156 271.210938 L 128.59375 271.03125 L 128.644531 270.875 L 128.65625 270.84375 L 128.660156 270.832031 L 132.226562 270.335938 L 135.371094 264.542969 C 135.371094 264.542969 135.371094 264.542969 134.964844 262.125 L 134.964844 262.113281 C 136.363281 259.949219 137.398438 257.632812 138.277344 255.070312 L 147.953125 230.117188 L 147.953125 230.109375 C 148.128906 229.671875 148.296875 229.230469 148.472656 228.792969 C 148.792969 227.980469 149.035156 227.136719 149.308594 226.308594 C 149.191406 226.269531 149.074219 226.238281 148.957031 226.203125 C 149.601562 225.128906 147.957031 223.15625 148.910156 221.691406 C 149.132812 221.382812 149.359375 221.082031 149.59375 220.785156 L 152.140625 220.304688 L 154.34375 216.816406 C 154.34375 216.816406 154.367188 216.726562 154.410156 216.574219 C 154.9375 215.199219 158.226562 214.898438 156.582031 211.535156 C 158.089844 209.265625 156.761719 209.503906 157.800781 207.433594 C 157.894531 207.273438 157.988281 207.113281 158.089844 206.953125 C 159.066406 205.574219 160.144531 206.636719 160.527344 206.199219 C 160.949219 205.710938 164.089844 203.117188 164.089844 203.117188 C 164.089844 203.117188 164.089844 203.117188 165.347656 201.230469 C 166.605469 199.34375 167.027344 196.410156 167.027344 196.410156 C 167.027344 196.410156 167.027344 196.410156 166.910156 194.589844 C 168.046875 193.082031 169.132812 191.542969 169.570312 189.597656 L 169.582031 189.582031 L 171.21875 186.765625 L 171.21875 184.433594 C 171.820312 183.367188 172.472656 182.300781 172.925781 181.203125 C 173.382812 180.085938 173.375 178.777344 173.6875 177.582031 C 173.863281 176.898438 174.304688 176.285156 174.550781 175.613281 C 175.523438 173.015625 176.898438 170.476562 177.324219 167.792969 C 178.214844 162.207031 178.792969 156.707031 183.003906 152.265625 C 186.066406 149.039062 188.3125 145.191406 188.96875 140.59375 C 189.167969 139.199219 189.632812 137.785156 190.277344 136.535156 C 190.992188 135.144531 191.957031 133.882812 192.851562 132.578125 C 193.03125 132.320312 192.949219 131.964844 192.679688 131.804688 " fill-opacity="1" fill-rule="nonzero"/></g><g clip-path="url(#id3)"><path fill="rgb(100%, 100%, 100%)" d="M 241.128906 272.917969 C 237.332031 271.824219 233.53125 270.730469 229.734375 269.640625 C 230.617188 269.613281 231.546875 269.5625 232.457031 269.527344 C 235.390625 270.53125 238.316406 271.53125 241.246094 272.535156 C 241.207031 272.664062 241.171875 272.789062 241.128906 272.917969 Z M 320.453125 84.480469 C 319.363281 84.535156 318.277344 84.585938 317.191406 84.636719 C 318.382812 84.402344 319.367188 84.308594 319.367188 84.308594 C 319.730469 84.308594 320.09375 84.308594 320.457031 84.308594 Z M 298.613281 121.769531 C 298.601562 121.511719 298.589844 121.253906 298.582031 121.003906 C 299.652344 120.902344 300.722656 120.800781 301.796875 120.699219 C 303.886719 120.691406 306.496094 120.65625 308.949219 120.566406 C 305.503906 120.964844 302.058594 121.367188 298.613281 121.769531 Z M 284.089844 128.453125 C 290.582031 125.46875 297.40625 123.933594 304.480469 123.453125 C 297.683594 125.117188 290.886719 126.785156 284.089844 128.453125 Z M 320.945312 116.34375 C 322.121094 117.25 323.347656 117.566406 324.582031 117.613281 C 325.28125 118.878906 325.722656 119.820312 326.042969 120.515625 C 322.980469 119.929688 319.914062 119.53125 316.832031 119.335938 C 317.832031 118.140625 317.847656 116.875 317.847656 116.875 C 318.914062 116.789062 320.382812 115.917969 320.945312 116.34375 Z M 368.929688 214.570312 C 368.878906 214.433594 368.84375 214.351562 368.84375 214.351562 C 368.84375 214.351562 365.90625 207.507812 365.625 206.679688 C 365.347656 205.84375 361.691406 200.8125 361.691406 200.8125 C 361.691406 200.8125 359.914062 198.960938 357.054688 195.757812 L 356.914062 195.601562 C 355.257812 193.667969 353.515625 191.789062 351.675781 189.957031 C 350.242188 188.53125 348.832031 187.039062 347.511719 185.484375 C 347.324219 183.339844 348.15625 182.363281 346.480469 181.382812 C 344.800781 180.40625 342.140625 177.730469 342.140625 177.730469 L 342.136719 177.726562 C 341.132812 176 340.070312 174.347656 338.507812 173.132812 C 338.378906 173.019531 338.253906 172.921875 338.140625 172.84375 C 336.640625 171.828125 335.441406 169.367188 334.320312 168.667969 C 333.203125 167.96875 331.246094 166.988281 328.730469 166.988281 C 326.214844 166.988281 330.363281 167.902344 326.214844 166.988281 C 324.660156 166.648438 323.203125 166.089844 321.929688 165.488281 L 322.0625 165.136719 C 322.125 164.957031 322.324219 164.863281 322.507812 164.914062 L 322.597656 164.941406 C 324.824219 165.609375 326.171875 162.503906 324.140625 161.367188 C 319.964844 159.03125 315.214844 157.609375 310.761719 155.410156 C 310.417969 155.148438 310.070312 154.90625 309.722656 154.6875 C 307.90625 153.570312 307.410156 152.175781 305.984375 151.613281 C 304.550781 151.058594 299.382812 147.5625 299.382812 147.5625 L 295.464844 144.488281 C 295.464844 144.488281 295.1875 142.113281 291.835938 140.992188 C 289.035156 140.058594 287.757812 140.402344 286.679688 139.554688 C 286.445312 139.320312 286.21875 139.078125 286 138.828125 C 285.886719 138.679688 285.769531 138.550781 285.652344 138.425781 C 285.148438 137.808594 284.710938 137.152344 284.429688 136.402344 C 283.628906 134.257812 281.710938 132.785156 279.519531 132.558594 C 279.417969 132.027344 279.164062 131.667969 278.933594 131.316406 C 283.027344 129.957031 287.058594 128.394531 291.203125 127.28125 C 295.941406 126.011719 300.8125 125.011719 305.691406 124.539062 C 310.660156 124.058594 315.730469 124.078125 320.722656 124.40625 C 324.417969 124.652344 328.09375 125.285156 331.769531 125.882812 C 332.304688 125.96875 332.5 125.207031 331.996094 125.019531 C 324.863281 122.367188 317.300781 122.097656 309.742188 121.800781 C 309.765625 121.554688 309.789062 121.300781 309.8125 121.050781 C 315.828125 121.558594 321.839844 122.066406 327.851562 122.570312 C 328.484375 122.8125 329.257812 122.941406 329.976562 122.753906 C 330.542969 122.796875 331.117188 122.847656 331.683594 122.890625 C 331.40625 122.699219 331.117188 122.503906 330.828125 122.316406 C 331.238281 121.976562 331.589844 121.46875 331.804688 120.695312 C 332.707031 117.460938 332.34375 117.144531 333.402344 117.15625 L 333.648438 117.164062 L 333.757812 117.167969 L 333.871094 117.167969 C 335.851562 117.222656 337.808594 117.339844 339.730469 118.074219 C 340.46875 118.359375 341.238281 118.570312 341.996094 118.800781 C 342.214844 118.867188 342.449219 118.761719 342.535156 118.554688 L 342.539062 118.546875 C 342.632812 118.328125 342.542969 118.082031 342.332031 117.972656 C 341.34375 117.472656 340.351562 116.972656 339.359375 116.472656 C 340.820312 116.183594 342.070312 115.851562 342.425781 115.554688 C 342.625 115.394531 342.851562 115.109375 343.074219 114.769531 C 345.621094 115.433594 348.171875 116.097656 350.714844 116.753906 C 350.976562 116.824219 351.234375 116.640625 351.269531 116.375 C 351.5 114.511719 351.996094 114.679688 358.433594 116.84375 C 357.90625 116.183594 357.558594 115.738281 357.414062 115.554688 C 357.902344 114.238281 358.339844 113.0625 358.878906 111.601562 C 358.960938 111.382812 358.863281 111.140625 358.65625 111.042969 C 354.839844 109.234375 351.222656 107.207031 347.484375 105.671875 L 347.476562 105.667969 C 345.640625 104.097656 347.179688 105.914062 345.640625 104.097656 C 344.101562 102.28125 341.027344 99.902344 341.027344 99.902344 C 341.027344 99.902344 337.539062 97.527344 335.582031 96.269531 C 333.625 95.011719 335.441406 93.476562 330.40625 93.191406 C 325.375 92.917969 323.835938 93.058594 321.601562 93.191406 C 319.367188 93.332031 316.710938 93.753906 316.710938 93.753906 C 316.710938 93.753906 316.015625 93.875 315.15625 94.003906 C 314.179688 92.5625 312.503906 93.40625 311.15625 93.292969 C 310.917969 93.269531 310.679688 93.265625 310.441406 93.257812 C 310.226562 93.097656 310.007812 92.929688 309.796875 92.769531 C 312.675781 92.769531 315.554688 92.769531 318.433594 92.769531 C 315.5625 92.097656 312.671875 91.699219 309.800781 91.800781 C 309.136719 91.816406 308.660156 91.738281 308.3125 91.574219 C 307.679688 91.015625 307.960938 90.402344 307.960938 90.402344 C 307.960938 90.402344 307.695312 90.378906 307.449219 90.320312 C 307.417969 90.117188 307.40625 89.90625 307.402344 89.6875 C 307.535156 89.609375 307.722656 89.523438 307.960938 89.421875 C 310.003906 88.585938 312.519531 87.328125 312.519531 87.328125 C 312.519531 87.328125 312.03125 87.4375 313.386719 86.101562 C 317.300781 86.195312 321.214844 86.375 325.128906 86.441406 C 328.492188 86.5 329.199219 87.484375 329.234375 82.785156 C 329.234375 82.636719 329.410156 82.496094 329.542969 82.289062 C 330.945312 82.046875 332.390625 81.796875 333.839844 81.550781 C 333.871094 81.089844 333.867188 81.160156 333.894531 80.703125 C 332.320312 80.214844 330.742188 79.726562 329.21875 79.25 C 329.546875 79.140625 329.988281 78.988281 330.429688 78.839844 C 330.445312 78.582031 330.453125 78.328125 330.460938 78.074219 C 329.554688 77.976562 328.648438 77.890625 327.742188 77.800781 C 325.65625 75.582031 331.644531 74.9375 325.65625 75.582031 C 319.667969 76.234375 318.390625 76.703125 316.574219 76.839844 C 314.753906 76.980469 314.511719 76.566406 312.808594 77.246094 C 312.132812 77.519531 311.417969 77.59375 310.691406 77.464844 C 311.394531 77.390625 312.105469 77.320312 312.808594 77.246094 L 312.796875 76.972656 C 311.746094 76.910156 310.691406 76.839844 309.640625 76.773438 C 309.648438 76.59375 309.652344 76.414062 309.65625 76.234375 C 312.992188 76.234375 316.328125 76.234375 319.667969 76.234375 L 319.921875 75.4375 C 318.6875 74.839844 317.484375 73.816406 316.210938 73.722656 C 312.660156 73.460938 309.09375 73.351562 305.523438 73.289062 C 305.523438 73.289062 300.339844 72.640625 298.40625 71.949219 C 298.105469 71.84375 297.839844 71.75 297.59375 71.667969 L 297.558594 71.59375 C 297.394531 71.242188 296.171875 71.214844 295.464844 71.285156 C 295.269531 71.304688 295.082031 71.332031 294.886719 71.347656 C 294.085938 71.394531 293.039062 71.519531 291.527344 71.742188 L 291.246094 71.78125 C 285.761719 72.5 280.351562 73.539062 275.042969 74.9375 L 275.003906 74.949219 L 254.519531 80.441406 C 254.519531 80.441406 253.820312 81.152344 251.863281 82.210938 C 249.90625 83.273438 248.457031 83.257812 246.792969 84.996094 L 246.769531 85.015625 C 245.152344 85.824219 243.59375 86.675781 242.089844 87.578125 C 241.917969 87.667969 241.742188 87.769531 241.5625 87.886719 C 239.570312 89.148438 239.65625 88.804688 236.546875 91.273438 L 236.453125 91.347656 C 233.128906 93.832031 230.132812 96.585938 227.402344 99.585938 L 227.300781 99.6875 L 227.289062 99.710938 C 224.25 103.074219 221.554688 106.753906 219.144531 110.742188 C 218.957031 111 218.769531 111.25 218.574219 111.492188 C 219.816406 108.882812 221.0625 106.269531 222.3125 103.664062 C 219.765625 107.253906 217.855469 111.085938 216.421875 115.109375 C 214.128906 119.609375 214.40625 117.777344 213.148438 121.769531 C 211.890625 125.761719 212.03125 125.132812 211.890625 128.453125 C 211.75 131.769531 211.300781 134.003906 211.300781 134.003906 C 211.300781 134.003906 210.382812 134.484375 211.484375 138.714844 C 211.214844 139.1875 211.296875 139.9375 211.386719 140.53125 C 211.53125 141.457031 211.683594 142.382812 211.839844 143.300781 C 211.664062 144.542969 211.300781 145.1875 211.300781 145.1875 C 211.300781 145.1875 212.179688 146.847656 212.863281 148.578125 C 213.109375 149.695312 213.359375 150.804688 213.636719 151.910156 C 213.289062 153.570312 212.03125 151.199219 213.847656 156.785156 C 215.664062 162.375 217.484375 163.824219 218.320312 165.605469 C 219.160156 167.386719 218.960938 167.09375 219.8125 168.6875 C 220.667969 170.28125 220.691406 170.761719 222.230469 174.8125 C 223.769531 178.867188 222.371094 176.351562 224.746094 179.707031 C 227.125 183.0625 230.480469 186.695312 230.480469 186.695312 C 230.480469 186.695312 230.898438 186.976562 231.738281 188.09375 C 232.574219 189.210938 235.09375 191.167969 235.09375 191.167969 C 235.09375 191.167969 236.613281 191.882812 238.410156 192.75 C 242.0625 196.3125 245.949219 199.601562 250.0625 202.628906 L 254.097656 207.382812 C 254.097656 207.382812 254.378906 208.082031 257.453125 209.898438 C 260.53125 211.710938 266.257812 212.6875 266.257812 212.6875 L 266.679688 212.789062 C 267.304688 213.097656 267.917969 213.417969 268.546875 213.722656 C 274.773438 216.726562 281.535156 218.867188 286.765625 223.738281 C 287.007812 223.960938 287.515625 223.914062 288 224.011719 C 288.105469 222.691406 288.191406 221.566406 288.261719 220.617188 C 290.058594 221.203125 291.796875 221.855469 293.492188 222.570312 L 311.816406 234.730469 C 313.539062 236.453125 315.1875 238.308594 316.75 240.324219 C 316.808594 239.105469 316.839844 238.410156 316.882812 237.53125 C 317.492188 238.316406 317.933594 238.882812 318.734375 239.90625 C 319.265625 237.65625 318.601562 236.554688 317.335938 235.410156 L 317.234375 235.308594 C 317.621094 235.433594 318.007812 235.578125 318.390625 235.75 C 321.460938 237.148438 326.214844 237.707031 326.914062 237.707031 C 327.613281 237.707031 328.171875 236.867188 329.710938 237.007812 C 330.011719 237.035156 330.605469 237.011719 331.347656 236.984375 C 331.398438 239.195312 331.464844 241.460938 330.949219 243.5 C 330.441406 243.332031 330.128906 243.160156 330.128906 243.160156 L 328.035156 249.878906 L 328.019531 249.914062 C 327.855469 250.054688 323.121094 254.222656 322.019531 255.316406 C 320.90625 256.433594 321.796875 255.832031 318.980469 258.925781 C 317.816406 259.6875 316.601562 260.398438 315.328125 261.058594 C 314.917969 261.269531 314.515625 261.503906 314.09375 261.761719 C 313.304688 262.242188 313.320312 263.398438 314.132812 263.847656 L 314.167969 263.867188 C 314.167969 263.867188 310.144531 264.960938 309.164062 266.640625 C 308.183594 268.316406 307.207031 268.875 307.207031 268.875 C 307.207031 268.875 304.550781 270.128906 299.941406 270.695312 C 295.328125 271.25 288.226562 272.085938 288.226562 272.085938 L 275.484375 273.625 C 275.484375 273.625 269.613281 273.625 265.417969 273.625 C 261.222656 273.625 264.71875 273.484375 259.128906 272.652344 C 253.539062 271.808594 250.605469 270.695312 245.570312 269.429688 C 240.542969 268.175781 241.367188 266.121094 237.050781 267.058594 C 233.089844 267.917969 230.628906 267.46875 228.242188 266.878906 C 227.464844 266.679688 226.6875 266.480469 225.910156 266.285156 C 224.828125 266.003906 224.542969 265.921875 223.96875 265.789062 C 223.398438 265.640625 222.816406 265.523438 222.238281 265.390625 C 222.195312 265.589844 222.144531 265.78125 222.09375 265.980469 C 222.613281 266.15625 223.136719 266.335938 223.65625 266.511719 C 223.777344 267.570312 224.777344 269.410156 227.179688 269.613281 C 227.542969 269.855469 227.898438 270.121094 228.28125 270.332031 C 228.746094 270.582031 229.226562 270.824219 229.722656 270.992188 C 235.390625 272.894531 241.074219 274.707031 246.835938 276.226562 L 246.839844 276.226562 L 246.847656 276.230469 C 252.289062 277.664062 257.804688 278.832031 263.425781 279.570312 L 263.609375 279.601562 C 264.738281 279.738281 262.339844 281.675781 267.515625 281.871094 C 268.308594 281.90625 269.15625 281.949219 270.03125 282.007812 C 270.265625 282.039062 270.503906 282.054688 270.746094 282.058594 C 275.382812 282.386719 280.347656 282.96875 280.347656 282.96875 C 280.460938 283.351562 280.570312 283.726562 280.679688 284.101562 C 280.710938 284.226562 280.894531 285.246094 278.277344 285.507812 C 275.484375 285.785156 283.148438 285.28125 278.277344 286.636719 C 275.953125 287.28125 274.800781 287.71875 274.152344 288.019531 C 269.011719 287.808594 263.976562 287.117188 258.96875 286.257812 L 258.945312 286.15625 L 258.640625 286.199219 C 254.3125 285.445312 250 284.574219 245.667969 283.785156 C 245.316406 283.71875 244.984375 283.980469 244.964844 284.335938 L 244.867188 285.953125 C 244.25 285.941406 243.894531 285.925781 243.894531 285.925781 L 243.066406 286.851562 C 241.980469 286.726562 240.917969 286.597656 239.871094 286.476562 C 239.277344 286.40625 238.96875 287.171875 239.449219 287.53125 C 240.980469 288.695312 242.542969 289.703125 244.25 290.160156 C 246.085938 290.65625 247.945312 291.097656 249.804688 291.519531 C 252.253906 292.660156 254.796875 293.695312 254.796875 293.695312 C 254.796875 293.695312 266.554688 295.363281 266.960938 295.402344 C 267.363281 295.4375 268.808594 293.800781 271.867188 294.964844 C 271.78125 295.253906 271.699219 295.539062 271.617188 295.828125 C 267.90625 295.488281 264.195312 295.148438 260.574219 294.816406 C 266.335938 300.523438 293.984375 299.371094 305.847656 293.957031 C 304.871094 293.957031 303.945312 293.957031 303.03125 293.957031 C 304.269531 293.617188 305.160156 293.390625 305.355469 293.34375 C 305.785156 293.246094 313.078125 292.96875 313.496094 292.453125 C 313.917969 291.933594 314.964844 292.1875 317.132812 292.453125 C 319.296875 292.71875 318.023438 297.003906 321.773438 293.140625 C 319.476562 296.585938 316.09375 297.992188 312.863281 299.585938 C 312.378906 299.824219 312.621094 300.558594 313.152344 300.460938 L 313.191406 300.453125 C 313.539062 300.386719 313.832031 300.71875 313.71875 301.050781 L 313.433594 301.933594 C 313.359375 302.175781 313.484375 302.429688 313.722656 302.511719 C 314.886719 302.90625 316.230469 303.632812 316.953125 303.234375 C 323.890625 299.375 330.796875 295.417969 337.484375 291.140625 C 339.542969 289.820312 341.320312 288.058594 343.105469 286.320312 C 343.914062 285.550781 347.742188 283.125 348.4375 282.570312 C 349.136719 282.011719 352.070312 279.636719 352.070312 279.636719 L 358.917969 268.414062 L 358.917969 268.40625 C 358.925781 268.402344 362.554688 265.941406 362.832031 265.242188 C 363.109375 264.542969 365.066406 260.210938 365.066406 260.210938 C 365.066406 260.210938 366.222656 258.582031 367.011719 257.183594 C 366.960938 257.4375 366.910156 257.699219 366.863281 257.949219 C 367.121094 257.277344 367.375 256.605469 367.628906 255.933594 L 367.628906 255.925781 C 368.152344 254.53125 368.660156 253.128906 369.121094 251.722656 C 370.800781 249.308594 372.757812 246.933594 373.035156 243.996094 C 373.316406 241.0625 372.195312 238.6875 372.058594 237.148438 C 371.917969 235.609375 374.429688 234.570312 372.335938 231.140625 C 370.246094 227.710938 369.402344 223.714844 369.402344 223.714844 C 369.402344 223.714844 369.695312 220.691406 370.070312 219.503906 C 371.164062 222.433594 372.054688 225.457031 372.730469 228.570312 C 373.097656 230.269531 373.589844 231.945312 374.027344 233.625 C 373.664062 231.246094 373.429688 228.832031 372.882812 226.492188 C 371.914062 222.316406 370.574219 218.347656 368.929688 214.570312 " fill-opacity="1" fill-rule="nonzero"/></g><path fill="rgb(100%, 100%, 100%)" d="M 374.027344 233.625 L 374.050781 233.761719 L 374.058594 233.734375 Z M 374.027344 233.625 " fill-opacity="1" fill-rule="nonzero"/></svg>